<svg width="24" height="24" viewBox="0 0 24 24" fill="none" xmlns="http://www.w3.org/2000/svg">
<path d="M12 13.5C12.8284 13.5 13.5 12.8284 13.5 12C13.5 11.1716 12.8284 10.5 12 10.5C11.1716 10.5 10.5 11.1716 10.5 12C10.5 12.8284 11.1716 13.5 12 13.5Z" fill="black"/>
<path fill-rule="evenodd" clip-rule="evenodd" d="M13 6.59069C15.2358 7.00138 16.9986 8.76416 17.4093 11H19V13H17.4093C16.9986 15.2358 15.2358 16.9986 13 17.4093V19H11V17.4093C8.76416 16.9986 7.00138 15.2358 6.59069 13H5V11H6.59069C7.00138 8.76416 8.76416 7.00138 11 6.59069V5H13V6.59069ZM15.5 12C15.5 13.933 13.933 15.5 12 15.5C10.067 15.5 8.5 13.933 8.5 12C8.5 10.067 10.067 8.5 12 8.5C13.933 8.5 15.5 10.067 15.5 12Z" fill="black"/>
</svg>
