<svg width="24" height="24" viewBox="0 0 24 24" fill="none" xmlns="http://www.w3.org/2000/svg">
<path d="M14.1213 10.0503L15.5355 11.4645L12 15L8.46447 11.4645L9.87868 10.0503L12 12.1716L14.1213 10.0503Z" fill="black"/>
<path fill-rule="evenodd" clip-rule="evenodd" d="M18.5 12C18.5 15.5898 15.5899 18.5 12 18.5C8.41015 18.5 5.5 15.5899 5.5 12C5.5 8.41015 8.41015 5.5 12 5.5C15.5898 5.5 18.5 8.41015 18.5 12ZM16.5 12C16.5 14.4853 14.4853 16.5 12 16.5C9.51472 16.5 7.5 14.4853 7.5 12C7.5 9.51472 9.51472 7.5 12 7.5C14.4853 7.5 16.5 9.51472 16.5 12Z" fill="black"/>
</svg>
