<svg width="24" height="24" viewBox="0 0 24 24" fill="none" xmlns="http://www.w3.org/2000/svg">
<path fill-rule="evenodd" clip-rule="evenodd" d="M15.5933 13.0427C16.4641 12.1429 17 10.917 17 9.56588C17 6.80446 14.7614 4.56588 12 4.56588C9.23858 4.56588 7 6.80446 7 9.56588C7 10.917 7.5359 12.1429 8.40673 13.0427L7.51361 18.4015L8.99614 19.4341L12 17.7176L15.0039 19.4341L16.4864 18.4015L15.5933 13.0427ZM15 9.56588C15 11.2227 13.6569 12.5659 12 12.5659C10.3431 12.5659 9 11.2227 9 9.56588C9 7.90903 10.3431 6.56588 12 6.56588C13.6569 6.56588 15 7.90903 15 9.56588ZM13.7661 14.245C13.2169 14.4524 12.6217 14.5659 12 14.5659C11.3783 14.5659 10.7831 14.4524 10.2339 14.245L9.83267 16.6526L12 15.4141L14.1673 16.6526L13.7661 14.245Z" fill="black"/>
</svg>
