<svg width="24" height="24" viewBox="0 0 24 24" fill="none" xmlns="http://www.w3.org/2000/svg">
<path d="M13 5V7H11V5H13Z" fill="black"/>
<path fill-rule="evenodd" clip-rule="evenodd" d="M12 16C14.2091 16 16 14.2091 16 12C16 9.79086 14.2091 8 12 8C9.79086 8 8 9.79086 8 12C8 14.2091 9.79086 16 12 16ZM12 14C13.1046 14 14 13.1046 14 12C14 10.8954 13.1046 10 12 10C10.8954 10 10 10.8954 10 12C10 13.1046 10.8954 14 12 14Z" fill="black"/>
<path d="M7 11H5V13H7V11Z" fill="black"/>
<path d="M6.34314 16.2427L7.75736 14.8284L9.17157 16.2427L7.75736 17.6569L6.34314 16.2427Z" fill="black"/>
<path d="M14.8284 16.2427L16.2426 17.6569L17.6568 16.2427L16.2426 14.8284L14.8284 16.2427Z" fill="black"/>
<path d="M13 17V19H11V17H13Z" fill="black"/>
<path d="M19 11H17V13H19V11Z" fill="black"/>
<path d="M14.8284 7.75737L16.2426 6.34316L17.6569 7.75737L16.2426 9.17158L14.8284 7.75737Z" fill="black"/>
<path d="M6.34313 7.75737L7.75734 9.17158L9.17155 7.75737L7.75734 6.34316L6.34313 7.75737Z" fill="black"/>
</svg>
