<svg width="24" height="24" viewBox="0 0 24 24" fill="none" xmlns="http://www.w3.org/2000/svg">
<path fill-rule="evenodd" clip-rule="evenodd" d="M6.86206 9.5464L5.26985 7.05858L6.95439 5.98047L8.25939 8.01952H18.7302L15.7302 14.0195H9.54593L6.86206 9.5464ZM9.47831 10.0195L10.6783 12.0195H14.4941L15.4941 10.0195H9.47831Z" fill="black"/>
<path d="M12.1121 16.5195C12.1121 17.3479 11.4406 18.0195 10.6121 18.0195C9.7837 18.0195 9.11212 17.3479 9.11212 16.5195C9.11212 15.6911 9.7837 15.0195 10.6121 15.0195C11.4406 15.0195 12.1121 15.6911 12.1121 16.5195Z" fill="black"/>
<path d="M14.6121 18.0195C15.4406 18.0195 16.1121 17.3479 16.1121 16.5195C16.1121 15.6911 15.4406 15.0195 14.6121 15.0195C13.7837 15.0195 13.1121 15.6911 13.1121 16.5195C13.1121 17.3479 13.7837 18.0195 14.6121 18.0195Z" fill="black"/>
</svg>
