<svg width="24" height="24" viewBox="0 0 24 24" fill="none" xmlns="http://www.w3.org/2000/svg">
<path d="M5.26984 7.05858L6.86205 9.5464L9.54592 14.0195H15.7301L17.3543 10.7906H15.1182L14.4941 12.0192L10.6783 12.0195L9.4783 10.0195H12.2738V8.01952H8.25937L6.95438 5.98047L5.26984 7.05858Z" fill="black"/>
<path d="M10.6121 18.0195C11.4405 18.0195 12.1121 17.3479 12.1121 16.5195C12.1121 15.6911 11.4405 15.0195 10.6121 15.0195C9.78368 15.0195 9.11211 15.6911 9.11211 16.5195C9.11211 17.3479 9.78368 18.0195 10.6121 18.0195Z" fill="black"/>
<path d="M14.6121 18.0195C15.4405 18.0195 16.1121 17.3479 16.1121 16.5195C16.1121 15.6911 15.4405 15.0195 14.6121 15.0195C13.7837 15.0195 13.1121 15.6911 13.1121 16.5195C13.1121 17.3479 13.7837 18.0195 14.6121 18.0195Z" fill="black"/>
<path d="M18.7301 9.48047H13.7301V7.48047H18.7301V9.48047Z" fill="black"/>
</svg>
