<svg width="24" height="24" viewBox="0 0 24 24" fill="none" xmlns="http://www.w3.org/2000/svg">
<path d="M6.86205 9.5464L5.26984 7.05858L6.95438 5.98047L8.25937 8.01952H12.2738V10.0195H9.4783L10.6783 12.0195H16.7399L15.7301 14.0195H9.54592L6.86205 9.5464Z" fill="black"/>
<path d="M12.1121 16.5195C12.1121 17.3479 11.4405 18.0195 10.6121 18.0195C9.78368 18.0195 9.11211 17.3479 9.11211 16.5195C9.11211 15.6911 9.78368 15.0195 10.6121 15.0195C11.4405 15.0195 12.1121 15.6911 12.1121 16.5195Z" fill="black"/>
<path d="M14.6121 18.0195C15.4405 18.0195 16.1121 17.3479 16.1121 16.5195C16.1121 15.6911 15.4405 15.0195 14.6121 15.0195C13.7837 15.0195 13.1121 15.6911 13.1121 16.5195C13.1121 17.3479 13.7837 18.0195 14.6121 18.0195Z" fill="black"/>
<path d="M13.7301 9.48047H15.2301V10.9805H17.2301V9.48047H18.7301V7.48047H17.2301V5.98047H15.2301V7.48047H13.7301V9.48047Z" fill="black"/>
</svg>
