<svg width="24" height="24" viewBox="0 0 24 24" fill="none" xmlns="http://www.w3.org/2000/svg">
<path d="M12 13.5C12.8284 13.5 13.5 12.8284 13.5 12C13.5 11.1716 12.8284 10.5 12 10.5C11.1716 10.5 10.5 11.1716 10.5 12C10.5 12.8284 11.1716 13.5 12 13.5Z" fill="black"/>
<path fill-rule="evenodd" clip-rule="evenodd" d="M5 17H19V7H5V17ZM17 9.91465C16.5738 9.764 16.236 9.42621 16.0854 9H7.91465C7.764 9.42621 7.42621 9.764 7 9.91465V14.0854C7.42621 14.236 7.764 14.5738 7.91465 15L16.0854 15C16.236 14.5738 16.5738 14.236 17 14.0854L17 9.91465Z" fill="black"/>
</svg>
