<svg width="24" height="24" viewBox="0 0 24 24" fill="none" xmlns="http://www.w3.org/2000/svg">
<path d="M8.03632 6.07262L6.03632 6.07262L6.03632 11.0726H11.0363V9.07262L9.23774 9.07262C10.8062 7.6102 13.2637 7.64319 14.7921 9.17157C16.3542 10.7337 16.3542 13.2663 14.7921 14.8284C13.6093 16.0113 11.87 16.2984 10.4169 15.69C9.6083 15.3506 8.93448 14.753 8.49903 14.0004L6.76669 15.0005C7.83143 16.8407 9.84246 18 11.9637 18C13.4992 18 15.0348 17.4142 16.2063 16.2426C18.5495 13.8995 18.5495 10.1005 16.2063 7.75736C13.9656 5.5166 10.3934 5.41869 8.03632 7.46362V6.07262Z" fill="black"/>
</svg>
