<svg width="24" height="24" viewBox="0 0 24 24" fill="none" xmlns="http://www.w3.org/2000/svg">
<path d="M10.3174 5.72044L10.8351 7.65261C11.5974 7.44913 12.4026 7.44913 13.1649 7.65261L13.6826 5.72044C12.5816 5.42652 11.4184 5.42652 10.3174 5.72044Z" fill="black"/>
<path d="M5.72045 13.6826C5.42654 12.5816 5.42654 11.4184 5.72045 10.3174L7.65263 10.8351C7.44915 11.5974 7.44915 12.4026 7.65263 13.1649L5.72045 13.6826Z" fill="black"/>
<path d="M16.3474 10.8351L18.2796 10.3174C18.5735 11.4184 18.5735 12.5816 18.2796 13.6826L16.3474 13.1649C16.5509 12.4026 16.5509 11.5974 16.3474 10.8351Z" fill="black"/>
<path d="M13.6826 18.2796L13.1649 16.3474C12.4026 16.5509 11.5974 16.5509 10.8351 16.3474L10.3174 18.2796C11.4184 18.5735 12.5816 18.5735 13.6826 18.2796Z" fill="black"/>
<path d="M6.36991 8.74944C6.94062 7.76306 7.7631 6.94058 8.74947 6.36987L9.74964 8.10221C9.06677 8.49732 8.49736 9.06673 8.10225 9.7496L6.36991 8.74944Z" fill="black"/>
<path d="M15.2506 6.36987L14.2504 8.10221C14.9333 8.49732 15.5027 9.06673 15.8978 9.7496L17.6301 8.74944C17.0594 7.76306 16.2369 6.94058 15.2506 6.36987Z" fill="black"/>
<path d="M15.8978 14.2504L17.6301 15.2505C17.0594 16.2369 16.2369 17.0594 15.2506 17.6301L14.2504 15.8977C14.9333 15.5026 15.5027 14.9332 15.8978 14.2504Z" fill="black"/>
<path d="M8.74947 17.6301L9.74964 15.8977C9.06677 15.5026 8.49736 14.9332 8.10225 14.2504L6.36991 15.2505C6.94062 16.2369 7.7631 17.0594 8.74947 17.6301Z" fill="black"/>
</svg>
