<svg width="24" height="24" viewBox="0 0 24 24" fill="none" xmlns="http://www.w3.org/2000/svg">
<path d="M15.9637 6.07262L17.9637 6.07262L17.9637 11.0726H12.9637V9.07262L14.7623 9.07262C13.1938 7.6102 10.7363 7.64319 9.20789 9.17157C7.64579 10.7337 7.64579 13.2663 9.20789 14.8284C10.3907 16.0113 12.13 16.2984 13.5831 15.69C14.3917 15.3506 15.0655 14.753 15.501 14.0004L17.2333 15.0005C16.1686 16.8407 14.1575 18 12.0363 18C10.5008 18 8.96524 17.4142 7.79367 16.2426C5.45053 13.8995 5.45053 10.1005 7.79367 7.75736C10.0344 5.5166 13.6066 5.41869 15.9637 7.46362V6.07262Z" fill="black"/>
</svg>
