<svg width="24" height="24" viewBox="0 0 24 24" fill="none" xmlns="http://www.w3.org/2000/svg">
<path d="M18.0632 8.49942C16.8528 6.40743 14.5907 5 12 5C10.0395 5 8.25503 5.80123 7 7.09704V5.5L5 5.5L5 10.5H9.5V8.5L8.43146 8.49999C9.35317 7.54029 10.6734 7 12 7C13.8505 7 15.4663 8.00531 16.3308 9.49958L18.0632 8.49942Z" fill="black"/>
<path d="M10.5 9H12.5V12H13.5V14H10.5V9Z" fill="black"/>
<path d="M12 19C9.40925 19 7.14723 17.5926 5.93681 15.5006L7.66915 14.5004C8.53374 15.9947 10.1495 17 12 17C13.3266 17 14.6468 16.4597 15.5685 15.5L14.5 15.5006V13.5006L19 13.5L19 18.5H17V16.903C15.745 18.1988 13.9605 19 12 19Z" fill="black"/>
</svg>
