<svg width="24" height="24" viewBox="0 0 24 24" fill="none" xmlns="http://www.w3.org/2000/svg">
<path d="M12 5C9.40925 5 7.14723 6.40743 5.93681 8.49942L7.66915 9.49958C8.53374 8.00531 10.1495 7 12 7C13.3266 7 14.6468 7.54029 15.5685 8.49999L14.5 8.49942V10.4994L19 10.5L19 5.5L17 5.5V7.09704C15.745 5.80123 13.9605 5 12 5Z" fill="black"/>
<path d="M10.5 9H12.5V12H14.5V14H10.5V9Z" fill="black"/>
<path d="M18.0632 15.5006C16.8528 17.5926 14.5907 19 12 19C10.0395 19 8.25503 18.1988 7 16.903V18.5L5 18.5L5 13.5H9.5V15.5L8.43146 15.5C9.35317 16.4597 10.6734 17 12 17C13.8505 17 15.4663 15.9947 16.3308 14.5004L18.0632 15.5006Z" fill="black"/>
</svg>
