<svg width="24" height="24" viewBox="0 0 24 24" fill="none" xmlns="http://www.w3.org/2000/svg">
<path d="M10.8368 10.7585H8.5C7.67157 10.7585 7 11.4301 7 12.2585C7 13.087 7.67157 13.7585 8.5 13.7585V15.7585C6.567 15.7585 5 14.1915 5 12.2585C5 10.3255 6.567 8.75853 8.5 8.75853H9.36997C10 6.75853 11.9078 5.75853 14 5.75853C16.7614 5.75853 19 7.99711 19 10.7585C19 11.6384 18.7727 12.4652 18.3737 13.1834L16.8593 11.6691C16.9507 11.3819 17 11.076 17 10.7585C17 9.10168 15.6569 7.75853 14 7.75853C12.4884 7.75853 11.5669 8.44094 11.2776 9.35945L10.8368 10.7585Z" fill="black"/>
<path d="M10.5 13.7415L12.0429 15.2844L10.5 16.8273L11.9142 18.2415L13.4571 16.6986L15 18.2415L16.4142 16.8273L14.8713 15.2844L16.4142 13.7415L15 12.3273L13.4571 13.8701L11.9142 12.3273L10.5 13.7415Z" fill="black"/>
</svg>
