<svg width="24" height="24" viewBox="0 0 24 24" fill="none" xmlns="http://www.w3.org/2000/svg">
<path fill-rule="evenodd" clip-rule="evenodd" d="M6.69789 16.6361L5.25001 18.084L6.66422 19.4982L19.25 6.91244L17.8358 5.49823L15.8669 7.46716C15.224 7.16631 14.5066 6.99824 13.75 6.99824C11.6578 6.99824 9.75 7.99824 9.11996 9.99824H8.25C6.317 9.99824 4.75 11.5652 4.75 13.4982C4.75 14.8738 5.54357 16.0641 6.69789 16.6361ZM8.33578 14.9982L14.2877 9.0463C14.1133 9.01473 13.9336 8.99824 13.75 8.99824C12.2384 8.99824 11.3169 9.68066 11.0276 10.5992L10.5868 11.9982H8.25C7.42157 11.9982 6.75 12.6698 6.75 13.4982C6.75 14.3267 7.42157 14.9982 8.25 14.9982H8.33578Z" fill="black"/>
<path d="M13.75 16.9982H11.9896L13.9999 14.988C15.4574 14.8678 16.6195 13.7057 16.7397 12.2481L18.5135 10.4743C18.6671 10.9548 18.75 11.4668 18.75 11.9982C18.75 14.7597 16.5114 16.9982 13.75 16.9982Z" fill="black"/>
</svg>
