<svg width="24" height="24" viewBox="0 0 24 24" fill="none" xmlns="http://www.w3.org/2000/svg">
<path d="M9.99609 14.706L11.4103 13.2917L12.5316 14.4131V11.2415H14.5316V14.4131L15.653 13.2917L17.0672 14.706L13.5316 18.2415L9.99609 14.706Z" fill="black"/>
<path d="M10.8368 10.7585H8.5C7.67157 10.7585 7 11.4301 7 12.2585C7 13.0869 7.67157 13.7585 8.5 13.7585V15.7585C6.567 15.7585 5 14.1915 5 12.2585C5 10.3255 6.567 8.75851 8.5 8.75851H9.36997C10 6.75851 11.9078 5.75851 14 5.75851C16.7614 5.75851 19 7.99709 19 10.7585C19 11.6384 18.7727 12.4652 18.3737 13.1834L16.8593 11.6691C16.9507 11.3819 17 11.076 17 10.7585C17 9.10166 15.6569 7.75851 14 7.75851C12.4884 7.75851 11.5669 8.44093 11.2776 9.35944L10.8368 10.7585Z" fill="black"/>
</svg>
