<svg width="24" height="24" viewBox="0 0 24 24" fill="none" xmlns="http://www.w3.org/2000/svg">
<path d="M8.5 10.7585H10.8368L11.2776 9.35947C11.5669 8.44096 12.4884 7.75854 14 7.75854C15.6569 7.75854 17 9.10169 17 10.7585C17 11.076 16.9507 11.3819 16.8593 11.6691L18.3737 13.1835C18.7727 12.4652 19 11.6384 19 10.7585C19 7.99712 16.7614 5.75854 14 5.75854C11.9078 5.75854 10 6.75854 9.36997 8.75854H8.5C6.567 8.75854 5 10.3255 5 12.2585C5 14.1915 6.567 15.7585 8.5 15.7585V13.7585C7.67157 13.7585 7 13.087 7 12.2585C7 11.4301 7.67157 10.7585 8.5 10.7585Z" fill="black"/>
<path d="M11.4103 16.1913L9.99609 14.7771L13.5316 11.2415L17.0672 14.777L15.653 16.1913L14.5316 15.0699V18.2415H12.5316V15.0699L11.4103 16.1913Z" fill="black"/>
</svg>
