<svg width="24" height="24" viewBox="0 0 24 24" fill="none" xmlns="http://www.w3.org/2000/svg">
<path d="M11.25 10.4886C11.25 11.179 10.6904 11.7386 10 11.7386C9.30964 11.7386 8.75 11.179 8.75 10.4886C8.75 9.79829 9.30964 9.23865 10 9.23865C10.6904 9.23865 11.25 9.79829 11.25 10.4886Z" fill="black"/>
<path d="M14 11.7386C14.6904 11.7386 15.25 11.179 15.25 10.4886C15.25 9.79829 14.6904 9.23865 14 9.23865C13.3096 9.23865 12.75 9.79829 12.75 10.4886C12.75 11.179 13.3096 11.7386 14 11.7386Z" fill="black"/>
<path fill-rule="evenodd" clip-rule="evenodd" d="M18.5 5.5V15.5H14.5L12 18.5L9.5 15.5H5.5V5.5H18.5ZM13.5633 13.5L12 15.3759L10.4368 13.5H7.5V7.5H16.5V13.5H13.5633Z" fill="black"/>
</svg>
