<svg width="24" height="24" viewBox="0 0 24 24" fill="none" xmlns="http://www.w3.org/2000/svg">
<path d="M7 12L5 12C5.00001 8.134 8.13401 5 12 5C15.866 5 19 8.13401 19 12C19 15.866 15.866 19 12 19V17C14.7614 17 17 14.7614 17 12C17 9.23858 14.7614 7 12 7C9.23858 7 7.00001 9.23857 7 12Z" fill="black"/>
<path fill-rule="evenodd" clip-rule="evenodd" d="M8.71429 10.7143L15 9L13.2857 15.2857L7 17L8.71429 10.7143ZM9.85044 14.1496L10.3431 12.3431L12.1496 11.8504L11.6569 13.6569L9.85044 14.1496Z" fill="black"/>
</svg>
