<svg width="24" height="24" viewBox="0 0 24 24" fill="none" xmlns="http://www.w3.org/2000/svg">
<path fill-rule="evenodd" clip-rule="evenodd" d="M18.5 12C18.5 15.5899 15.5899 18.5 12 18.5C8.41015 18.5 5.5 15.5899 5.5 12C5.5 8.41015 8.41015 5.5 12 5.5C15.5899 5.5 18.5 8.41015 18.5 12ZM11 16.3885V14.5H13V16.3885C14.6824 16.0067 16.0067 14.6824 16.3885 13H14.5V11H16.3885C16.0067 9.31762 14.6824 7.99326 13 7.61151V9.5H11V7.61151C9.31762 7.99326 7.99326 9.31762 7.61151 11H9.5V13H7.61151C7.99326 14.6824 9.31762 16.0067 11 16.3885Z" fill="black"/>
</svg>
