<svg width="24" height="24" viewBox="0 0 24 24" fill="none" xmlns="http://www.w3.org/2000/svg">
<path d="M10.5 12C10.5 11.1716 11.1716 10.5 12 10.5C12.8284 10.5 13.5 11.1716 13.5 12C13.5 12.8284 12.8284 13.5 12 13.5C11.1716 13.5 10.5 12.8284 10.5 12Z" fill="black"/>
<path fill-rule="evenodd" clip-rule="evenodd" d="M12 18.5C15.5899 18.5 18.5 15.5899 18.5 12C18.5 8.41015 15.5899 5.5 12 5.5C8.41015 5.5 5.5 8.41015 5.5 12C5.5 15.5899 8.41015 18.5 12 18.5ZM11 15V16.3885C9.31762 16.0067 7.99326 14.6824 7.61151 13H9V11H7.61151C7.99326 9.31762 9.31762 7.99326 11 7.61151V9H13V7.61151C14.6824 7.99326 16.0067 9.31762 16.3885 11H15V13H16.3885C16.0067 14.6824 14.6824 16.0067 13 16.3885V15H11Z" fill="black"/>
</svg>
