<svg width="24" height="24" viewBox="0 0 24 24" fill="none" xmlns="http://www.w3.org/2000/svg">
<path fill-rule="evenodd" clip-rule="evenodd" d="M12 8C12 9.30622 11.1652 10.4175 10 10.8293L10 19H8L8 10.8293C6.83481 10.4175 6 9.30622 6 8C6 6.34315 7.34315 5 9 5C10.6569 5 12 6.34315 12 8ZM9 9C9.55228 9 10 8.55228 10 8C10 7.44772 9.55228 7 9 7C8.44772 7 8 7.44772 8 8C8 8.55228 8.44772 9 9 9Z" fill="black"/>
<path fill-rule="evenodd" clip-rule="evenodd" d="M15 19C16.6569 19 18 17.6569 18 16C18 14.6938 17.1652 13.5825 16 13.1707V5L14 5V13.1707C12.8348 13.5825 12 14.6938 12 16C12 17.6569 13.3431 19 15 19ZM15 17C15.5523 17 16 16.5523 16 16C16 15.4477 15.5523 15 15 15C14.4477 15 14 15.4477 14 16C14 16.5523 14.4477 17 15 17Z" fill="black"/>
</svg>
