<svg width="24" height="24" viewBox="0 0 24 24" fill="none" xmlns="http://www.w3.org/2000/svg">
<path fill-rule="evenodd" clip-rule="evenodd" d="M16 12C14.6938 12 13.5825 11.1652 13.1707 10H5V8H13.1707C13.5825 6.83481 14.6938 6 16 6C17.6569 6 19 7.34315 19 9C19 10.6569 17.6569 12 16 12ZM15 9C15 9.55228 15.4477 10 16 10C16.5523 10 17 9.55228 17 9C17 8.44772 16.5523 8 16 8C15.4477 8 15 8.44772 15 9Z" fill="black"/>
<path fill-rule="evenodd" clip-rule="evenodd" d="M5 15C5 16.6569 6.34315 18 8 18C9.30622 18 10.4175 17.1652 10.8293 16H19V14H10.8293C10.4175 12.8348 9.30622 12 8 12C6.34315 12 5 13.3431 5 15ZM7 15C7 15.5523 7.44772 16 8 16C8.55228 16 9 15.5523 9 15C9 14.4477 8.55228 14 8 14C7.44772 14 7 14.4477 7 15Z" fill="black"/>
</svg>
