<svg width="24" height="24" viewBox="0 0 24 24" fill="none" xmlns="http://www.w3.org/2000/svg">
<path fill-rule="evenodd" clip-rule="evenodd" d="M12 5C15.3137 5 18 6.34315 18 8V16C18 17.6569 15.3137 19 12 19C8.68629 19 6 17.6569 6 16V8C6 6.34315 8.68629 5 12 5ZM15.3482 7.66753C15.6147 7.80079 15.7793 7.91509 15.8793 8C15.7793 8.08491 15.6147 8.19921 15.3482 8.33247C14.5947 8.70924 13.4137 9 12 9C10.5863 9 9.40534 8.70924 8.65179 8.33247C8.38528 8.19921 8.22073 8.08491 8.12074 8C8.22073 7.91509 8.38528 7.80079 8.65179 7.66753C9.40534 7.29076 10.5863 7 12 7C13.4137 7 14.5947 7.29076 15.3482 7.66753ZM16 16V10.2361C14.9385 10.7111 13.5367 11 12 11C10.4633 11 9.06151 10.7111 8 10.2361V16C9.00175 16.8507 10.7564 17 12 17C13.2436 17 14.9982 16.8507 16 16Z" fill="black"/>
</svg>
