<svg width="24" height="24" viewBox="0 0 24 24" fill="none" xmlns="http://www.w3.org/2000/svg">
<path fill-rule="evenodd" clip-rule="evenodd" d="M18 8C18 6.34315 15.3137 5 12 5C8.68629 5 6 6.34315 6 8V16C6 17.6569 8.68629 19 12 19C15.3137 19 18 17.6569 18 16V8ZM15.3482 7.66753C15.6147 7.80079 15.7793 7.91509 15.8793 8C15.7793 8.08491 15.6147 8.19921 15.3482 8.33247C14.5947 8.70924 13.4137 9 12 9C10.5863 9 9.40534 8.70924 8.65179 8.33247C8.38528 8.19921 8.22073 8.08491 8.12074 8C8.22073 7.91509 8.38528 7.80079 8.65179 7.66753C9.40534 7.29076 10.5863 7 12 7C13.4137 7 14.5947 7.29076 15.3482 7.66753ZM16 10.2361C14.9385 10.7111 13.5367 11 12 11C10.4633 11 9.06151 10.7111 8 10.2361V13.7639C9.06151 13.2889 10.4633 13 12 13C13.5367 13 14.9385 13.2889 16 13.7639V10.2361ZM15.3482 15.6675C15.6147 15.8008 15.7793 15.9151 15.8793 16C15.7793 16.0849 15.6147 16.1992 15.3482 16.3325C14.5947 16.7092 13.4137 17 12 17C10.5863 17 9.40534 16.7092 8.65179 16.3325C8.38528 16.1992 8.22073 16.0849 8.12074 16C8.22073 15.9151 8.38528 15.8008 8.65179 15.6675C9.40534 15.2908 10.5863 15 12 15C13.4137 15 14.5947 15.2908 15.3482 15.6675Z" fill="black"/>
</svg>
