<svg width="24" height="24" viewBox="0 0 24 24" fill="none" xmlns="http://www.w3.org/2000/svg">
<path fill-rule="evenodd" clip-rule="evenodd" d="M18 8C18 6.34315 15.3137 5 12 5C8.68629 5 6 6.34315 6 8V16C6 17.6569 8.68629 19 12 19C15.3137 19 18 17.6569 18 16V8ZM16 10.2361C14.9385 10.7111 13.5367 11 12 11C10.4633 11 9.06151 10.7111 8 10.2361V12C9.00175 12.8507 10.7564 13 12 13C13.2436 13 14.9982 12.8507 16 12V10.2361ZM16 14.2361C14.9385 14.7111 13.5367 15 12 15C10.4633 15 9.06151 14.7111 8 14.2361V16C9.00175 16.8507 10.7564 17 12 17C13.2436 17 14.9982 16.8507 16 16V14.2361ZM15.8793 8C15.7793 7.91509 15.6147 7.80079 15.3482 7.66753C14.5947 7.29076 13.4137 7 12 7C10.5863 7 9.40534 7.29076 8.65179 7.66753C8.38528 7.80079 8.22073 7.91509 8.12074 8C8.22073 8.08491 8.38528 8.19921 8.65179 8.33247C9.40534 8.70924 10.5863 9 12 9C13.4137 9 14.5947 8.70924 15.3482 8.33247C15.6147 8.19921 15.7793 8.08491 15.8793 8Z" fill="black"/>
</svg>
