<svg width="24" height="24" viewBox="0 0 24 24" fill="none" xmlns="http://www.w3.org/2000/svg">
<path fill-rule="evenodd" clip-rule="evenodd" d="M16.5962 7.40381C19.1346 9.94221 19.1346 14.0578 16.5962 16.5962C14.0578 19.1346 9.94221 19.1346 7.40381 16.5962C4.8654 14.0578 4.8654 9.94221 7.40381 7.40381C9.94221 4.8654 14.0578 4.8654 16.5962 7.40381ZM14.396 15.8102L8.18976 9.60397C7.09427 11.3426 7.30369 13.6676 8.81802 15.182C10.3324 16.6963 12.6575 16.9057 14.396 15.8102ZM15.182 8.81802C16.6963 10.3324 16.9057 12.6574 15.8102 14.396L9.60397 8.18976C11.3426 7.09427 13.6677 7.30369 15.182 8.81802Z" fill="black"/>
</svg>
