<svg width="24" height="24" viewBox="0 0 24 24" fill="none" xmlns="http://www.w3.org/2000/svg">
<path d="M13 12.5L13 8.5H11L11 12.5H13Z" fill="black"/>
<path d="M12 15.9997C12.6893 15.9997 13.2481 15.4409 13.2481 14.7516C13.2481 14.0623 12.6893 13.5036 12 13.5036C11.3107 13.5036 10.7519 14.0623 10.7519 14.7516C10.7519 15.4409 11.3107 15.9997 12 15.9997Z" fill="black"/>
<path fill-rule="evenodd" clip-rule="evenodd" d="M12 19C15.866 19 19 15.866 19 12C19 8.13401 15.866 5 12 5C8.13401 5 5 8.13401 5 12C5 15.866 8.13401 19 12 19ZM12 17C14.7614 17 17 14.7614 17 12C17 9.23858 14.7614 7 12 7C9.23858 7 7 9.23858 7 12C7 14.7614 9.23858 17 12 17Z" fill="black"/>
</svg>
