<svg width="24" height="24" viewBox="0 0 24 24" fill="none" xmlns="http://www.w3.org/2000/svg">
<path d="M17.1251 6.80298C16.2425 6.29229 15.2177 6 14.1246 6C11.7031 6 9.61668 7.43447 8.66867 9.5H6.87487V11.5H8.14482C8.10967 11.8601 8.10906 12.1526 8.14295 12.5H6.87487V14.5H8.66867C9.61668 16.5655 11.7031 18 14.1246 18C15.2177 18 16.2425 17.7077 17.1251 17.197L16.125 15.4647C15.5365 15.8051 14.8533 16 14.1246 16C12.8614 16 11.735 15.4145 11.0019 14.5H14.8749V12.5H10.1827C10.146 12.1467 10.1457 11.8514 10.1822 11.5H14.8749V9.5H11.0019C11.735 8.58554 12.8614 8 14.1246 8C14.8533 8 15.5365 8.19486 16.125 8.53532L17.1251 6.80298Z" fill="black"/>
</svg>
