<svg width="24" height="24" viewBox="0 0 24 24" fill="none" xmlns="http://www.w3.org/2000/svg">
<path fill-rule="evenodd" clip-rule="evenodd" d="M8.03055 14.3657C8.62002 14.8533 9.44566 15.3341 10.365 15.5167C11.2902 15.7004 12.3619 15.5967 13.4768 14.7797C13.1706 14.5835 12.7347 14.4356 12.1618 14.507L11.6308 12.6014C12.41 12.2539 13.6637 11.4833 14.7687 10.3421C15.5563 9.52881 16.2387 8.55875 16.6396 7.44984C12.4891 8.47843 9.40978 11.237 8.03055 14.3657ZM7.33939 16.3451C7.32875 16.3892 7.31834 16.4342 7.30797 16.4806C7.22942 16.8324 7.15575 17.2569 7.02838 17.991C6.97915 18.2747 6.92189 18.6046 6.85324 18.9945L4.88355 18.6476C4.94616 18.2921 5.00019 17.9806 5.04807 17.7046C5.18087 16.9391 5.2663 16.4466 5.35604 16.0447C5.48688 15.4588 5.63095 15.0427 5.90847 14.2836C7.53968 9.82183 11.9603 6.00841 17.828 5.18609L19.1164 5.00552L18.9595 6.29707C18.6839 8.56479 17.5034 10.393 16.2056 11.7334C15.6876 12.2683 15.1418 12.7353 14.6095 13.1317C15.2006 13.5296 15.595 14.0356 15.7884 14.4191L16.113 15.0627L15.6051 15.5741C13.7574 17.4343 11.74 17.8288 9.97541 17.4784C8.96549 17.2778 8.06585 16.8405 7.33939 16.3451Z" fill="black"/>
</svg>
