<svg width="24" height="24" viewBox="0 0 24 24" fill="none" xmlns="http://www.w3.org/2000/svg">
<path fill-rule="evenodd" clip-rule="evenodd" d="M12 7.00017C13.1926 7.00017 14.2634 7.52211 14.9962 8.35004C15.4288 8.12055 15.9114 8.00017 16.4022 8.00017C16.9288 8.00017 17.4461 8.13879 17.9022 8.40209C18.3582 8.6654 18.737 9.04411 19.0003 9.50017C19.2636 9.95623 19.4022 10.4736 19.4022 11.0002C19.4022 11.5268 19.2636 12.0441 19.0003 12.5002C18.9401 12.6044 18.8739 12.7045 18.8022 12.8002C19.2329 13.1232 19.5954 13.531 19.8663 14.0002L18.1339 15.0004C17.958 14.6957 17.7048 14.4428 17.3999 14.2673C17.095 14.0917 16.7492 13.9997 16.3974 14.0006C16.1125 14.0013 15.8318 14.0628 15.5739 14.1802C16.2311 14.6684 16.7851 15.2878 17.197 15.9997L15.4647 16.9998C14.773 15.8044 13.4804 15.0002 12 15.0002C10.5196 15.0002 9.22699 15.8044 8.53533 16.9998L6.80299 15.9997C7.21489 15.2878 7.76886 14.6684 8.42614 14.1802C8.16821 14.0628 7.88754 14.0013 7.60264 14.0006C7.25082 13.9997 6.90501 14.0917 6.60012 14.2673C6.29523 14.4428 6.04205 14.6957 5.86614 15.0004L4.13373 14.0002C4.40461 13.531 4.76708 13.1232 5.19783 12.8002C5.12608 12.7045 5.05991 12.6044 4.99975 12.5002C4.73645 12.0441 4.59783 11.5268 4.59783 11.0002C4.59783 10.4736 4.73645 9.95623 4.99975 9.50017C5.26306 9.04411 5.64177 8.6654 6.09783 8.40209C6.55389 8.13879 7.07122 8.00017 7.59783 8.00017C8.08858 8.00017 8.57126 8.12055 9.00382 8.35004C9.73666 7.52211 10.8074 7.00017 12 7.00017ZM16.302 12.0014C16.1623 11.9874 16.0267 11.9444 15.9042 11.8745C15.9669 11.5931 16 11.3005 16 11.0002C16 10.6998 15.9669 10.4072 15.9042 10.1258C16.0559 10.0394 16.2275 9.99391 16.4022 9.99391C16.5788 9.99391 16.7523 10.0404 16.9053 10.1287C17.0583 10.217 17.1853 10.3441 17.2736 10.497C17.362 10.65 17.4084 10.8235 17.4084 11.0002C17.4084 11.1768 17.362 11.3503 17.2736 11.5033C17.1853 11.6563 17.0583 11.7833 16.9053 11.8716C16.7814 11.9432 16.644 11.9872 16.5024 12.0014C16.4658 12.0005 16.4292 12.0001 16.3926 12.0002C16.3623 12.0003 16.3321 12.0007 16.302 12.0014ZM8.09586 10.1258C7.94414 10.0394 7.77251 9.99391 7.59783 9.99391C7.42119 9.99391 7.24767 10.0404 7.0947 10.1287C6.94173 10.217 6.8147 10.3441 6.72638 10.497C6.63807 10.65 6.59157 10.8235 6.59157 11.0002C6.59157 11.1768 6.63807 11.3503 6.72638 11.5033C6.8147 11.6563 6.94173 11.7833 7.0947 11.8716C7.21861 11.9432 7.356 11.9872 7.49761 12.0014C7.53418 12.0005 7.5708 12.0001 7.60745 12.0002C7.63768 12.0003 7.66788 12.0007 7.69805 12.0014C7.83772 11.9874 7.97329 11.9444 8.09586 11.8745C8.03311 11.5931 8.00001 11.3005 8.00001 11.0002C8.00001 10.6998 8.03311 10.4072 8.09586 10.1258ZM14 11.0002C14 12.1047 13.1046 13.0002 12 13.0002C10.8954 13.0002 10 12.1047 10 11.0002C10 9.8956 10.8954 9.00017 12 9.00017C13.1046 9.00017 14 9.8956 14 11.0002Z" fill="black"/>
</svg>
