<svg width="24" height="24" viewBox="0 0 24 24" fill="none" xmlns="http://www.w3.org/2000/svg">
<path d="M10.75 8.875C10.75 9.70343 10.0784 10.375 9.25 10.375C8.42158 10.375 7.75 9.70343 7.75 8.875C7.75 8.04657 8.42158 7.375 9.25 7.375C10.0784 7.375 10.75 8.04657 10.75 8.875Z" fill="black"/>
<path d="M17.7682 14.0152C14.8684 17.4949 9.13158 17.4949 6.23178 14.0152L7.76822 12.7348C9.86843 15.2551 14.1316 15.2551 16.2318 12.7348L17.7682 14.0152Z" fill="black"/>
<path d="M14.75 10.375C15.5784 10.375 16.25 9.70343 16.25 8.875C16.25 8.04657 15.5784 7.375 14.75 7.375C13.9216 7.375 13.25 8.04657 13.25 8.875C13.25 9.70343 13.9216 10.375 14.75 10.375Z" fill="black"/>
</svg>
