<svg width="24" height="24" viewBox="0 0 24 24" fill="none" xmlns="http://www.w3.org/2000/svg">
<path fill-rule="evenodd" clip-rule="evenodd" d="M12 6C15.3137 6 18 8.68629 18 12V18H16C14.3431 18 13 16.6569 13 15C13 13.3431 14.3431 12 16 12C16 9.79086 14.2091 8 12 8C9.79086 8 8 9.79086 8 12C9.65685 12 11 13.3431 11 15C11 16.6569 9.65685 18 8 18H6V12C6 8.68629 8.68629 6 12 6ZM16 14C15.4477 14 15 14.4477 15 15C15 15.5523 15.4477 16 16 16V14ZM9 15C9 15.5523 8.55228 16 8 16V14C8.55228 14 9 14.4477 9 15Z" fill="black"/>
</svg>
