<svg width="24" height="24" viewBox="0 0 24 24" fill="none" xmlns="http://www.w3.org/2000/svg">
<path fill-rule="evenodd" clip-rule="evenodd" d="M11.646 7.38561C10.2791 6.01921 8.06339 6.01935 6.6967 7.38604C5.32986 8.75288 5.32986 10.969 6.6967 12.3358L12 17.6391L17.3033 12.3358C18.6701 10.969 18.6701 8.75288 17.3033 7.38604C15.9367 6.0194 13.721 6.01921 12.3541 7.38546L12 7.7396L11.646 7.38561ZM12 14.8107L15.8891 10.9216C16.4749 10.3358 16.4749 9.38604 15.8891 8.80026C15.3033 8.21447 14.3535 8.21447 13.7678 8.80026L12 10.568L10.2322 8.80026C9.64644 8.21447 8.6967 8.21447 8.11091 8.80026C7.52512 9.38604 7.52512 10.3358 8.11091 10.9216L12 14.8107Z" fill="black"/>
</svg>
