<svg width="24" height="24" viewBox="0 0 24 24" fill="none" xmlns="http://www.w3.org/2000/svg">
<path d="M16 12.5784L12 8.57843L9.51946 11.059C8.83754 10.7252 8.11801 10.4942 7.38403 10.366L12 5.75L18 11.75V18.25L14.0039 18.25C14.0039 17.5776 13.9197 16.9052 13.7513 16.25H16V12.5784Z" fill="black"/>
<path d="M12.5 18.25C12.5 16.5865 11.8654 14.923 10.5962 13.6538C9.327 12.3846 7.6635 11.75 6 11.75V13.75C7.15165 13.75 8.30331 14.1893 9.18199 15.068C10.0607 15.9467 10.5 17.0983 10.5 18.25L12.5 18.25Z" fill="black"/>
<path d="M9.00001 18.25C9.00001 17.4822 8.70711 16.7145 8.12133 16.1287C7.53554 15.5429 6.76777 15.25 6 15.25V18.25H9.00001Z" fill="black"/>
</svg>
