<svg width="24" height="24" viewBox="0 0 24 24" fill="none" xmlns="http://www.w3.org/2000/svg">
<path d="M11 11.5L11 15.5H13L13 11.5H11Z" fill="black"/>
<path d="M12 8.00031C11.3107 8.00031 10.7519 8.55908 10.7519 9.24837C10.7519 9.93765 11.3107 10.4964 12 10.4964C12.6893 10.4964 13.2481 9.93765 13.2481 9.24837C13.2481 8.55908 12.6893 8.00031 12 8.00031Z" fill="black"/>
<path fill-rule="evenodd" clip-rule="evenodd" d="M12 5C8.13401 5 5 8.13401 5 12C5 15.866 8.13401 19 12 19C15.866 19 19 15.866 19 12C19 8.13401 15.866 5 12 5ZM12 7C9.23858 7 7 9.23858 7 12C7 14.7614 9.23858 17 12 17C14.7614 17 17 14.7614 17 12C17 9.23858 14.7614 7 12 7Z" fill="black"/>
</svg>
