<svg width="24" height="24" viewBox="0 0 24 24" fill="none" xmlns="http://www.w3.org/2000/svg">
<path d="M7.5 12C7.5 14.4853 9.51472 16.5 12 16.5C14.4853 16.5 16.5 14.4853 16.5 12C16.5 10.6672 15.9206 9.46982 15 8.64584L15 6.23221C17.0799 7.31623 18.5 9.49227 18.5 12C18.5 15.5898 15.5899 18.5 12 18.5C8.41015 18.5 5.5 15.5898 5.5 12C5.5 9.49227 6.92011 7.31623 9 6.23221L9 8.64584C8.07938 9.46982 7.5 10.6672 7.5 12Z" fill="black"/>
<path d="M14.1213 10.0503L15.5355 11.4645L12 15L8.46445 11.4645L9.87867 10.0503L11 11.1716L11 5.5L13 5.5L13 11.1716L14.1213 10.0503Z" fill="black"/>
</svg>
