<svg width="24" height="24" viewBox="0 0 24 24" fill="none" xmlns="http://www.w3.org/2000/svg">
<path d="M12 7.5C9.51472 7.5 7.5 9.51472 7.5 12C7.5 14.4853 9.51472 16.5 12 16.5C13.3328 16.5 14.5302 15.9206 15.3542 15L17.7678 15C16.6838 17.0799 14.5077 18.5 12 18.5C8.41015 18.5 5.5 15.5899 5.5 12C5.5 8.41015 8.41015 5.5 12 5.5C14.5077 5.5 16.6838 6.92011 17.7678 9L15.3542 9C14.5302 8.07938 13.3327 7.5 12 7.5Z" fill="black"/>
<path d="M13.9497 14.1213L12.5355 15.5355L9 12L12.5355 8.46445L13.9497 9.87867L12.8284 11L18.5 11V13L12.8284 13L13.9497 14.1213Z" fill="black"/>
</svg>
