<svg width="24" height="24" viewBox="0 0 24 24" fill="none" xmlns="http://www.w3.org/2000/svg">
<path d="M16.5 12C16.5 9.51472 14.4853 7.5 12 7.5C9.51472 7.5 7.5 9.51472 7.5 12C7.5 13.3328 8.07938 14.5302 9 15.3542L9 17.7678C6.92011 16.6838 5.5 14.5077 5.5 12C5.5 8.41015 8.41015 5.5 12 5.5C15.5899 5.5 18.5 8.41015 18.5 12C18.5 14.5077 17.0799 16.6838 15 17.7678V15.3542C15.9206 14.5302 16.5 13.3327 16.5 12Z" fill="black"/>
<path d="M9.87869 13.9497L8.46448 12.5355L12 9L15.5355 12.5355L14.1213 13.9497L13 12.8284L13 18.5H11L11 12.8284L9.87869 13.9497Z" fill="black"/>
</svg>
