<svg width="24" height="24" viewBox="0 0 24 24" fill="none" xmlns="http://www.w3.org/2000/svg">
<path d="M12 16.5C14.4853 16.5 16.5 14.4853 16.5 12C16.5 9.51472 14.4853 7.5 12 7.5C10.6672 7.5 9.46982 8.07938 8.64584 9H6.23221C7.31623 6.92011 9.49227 5.5 12 5.5C15.5898 5.5 18.5 8.41015 18.5 12C18.5 15.5899 15.5898 18.5 12 18.5C9.49227 18.5 7.31623 17.0799 6.23221 15H8.64584C9.46982 15.9206 10.6672 16.5 12 16.5Z" fill="black"/>
<path d="M10.0503 9.87869L11.4645 8.46448L15 12L11.4645 15.5355L10.0503 14.1213L11.1716 13L5.5 13V11L11.1716 11L10.0503 9.87869Z" fill="black"/>
</svg>
