<svg width="24" height="24" viewBox="0 0 24 24" fill="none" xmlns="http://www.w3.org/2000/svg">
<path fill-rule="evenodd" clip-rule="evenodd" d="M7.11076 14.0605L5.58653 15.5847L7.00075 16.9989L17.0007 6.99893L15.5865 5.58472L13.0848 8.0864C12.7321 8.02936 12.3698 7.99896 12 7.99896C9 7.99896 6.5 9.99896 5.5 11.999C5.85901 12.717 6.41136 13.435 7.11076 14.0605ZM8.52712 12.6441C9.37897 11.7923 10.2307 10.9405 11.0826 10.0887C9.77334 10.3444 8.6304 11.1158 7.88612 11.999C8.0753 12.2235 8.29024 12.4407 8.52712 12.6441Z" fill="black"/>
<path d="M10.9152 15.9115C11.2679 15.9686 11.6302 15.999 12 15.999C15 15.999 17.5 13.999 18.5 11.999C18.141 11.2809 17.5886 10.5629 16.8892 9.93744L15.4729 11.3538C15.7098 11.5572 15.9247 11.7745 16.1139 11.999C15.3696 12.8822 14.2267 13.6535 12.9174 13.9092L10.9152 15.9115Z" fill="black"/>
</svg>
