<svg width="24" height="24" viewBox="0 0 24 24" fill="none" xmlns="http://www.w3.org/2000/svg">
<path fill-rule="evenodd" clip-rule="evenodd" d="M16.5 12.0001C15.9477 12.0001 15.5 12.4478 15.5 13.0001C15.5 13.5486 15.9417 13.994 16.4888 14H17V18H7V8H9.17071C9.58254 6.83481 10.6938 6 12 6C13.3062 6 14.4175 6.83481 14.8293 8H17V12L16.5 12.0001ZM13 9C13 8.44772 12.5523 8 12 8C11.4477 8 11 8.44772 11 9V10H9V16H15V15.5987C14.1033 15.08 13.5 14.1105 13.5 13.0001C13.5 11.8896 14.1033 10.9201 15 10.4014V10H13V9Z" fill="black"/>
</svg>
