<svg width="24" height="24" viewBox="0 0 24 24" fill="none" xmlns="http://www.w3.org/2000/svg">
<path d="M9.25 7.5C6.76472 7.5 4.75 9.51472 4.75 12C4.75 14.4853 6.76472 16.5 9.25 16.5H10.75V14.5H9.25C7.86929 14.5 6.75 13.3807 6.75 12C6.75 10.6193 7.86929 9.5 9.25 9.5H10.75V7.5H9.25Z" fill="black"/>
<path d="M9.25 11V13H14.75V11H9.25Z" fill="black"/>
<path d="M13.25 7.5V9.5H14.75C16.1307 9.5 17.25 10.6193 17.25 12C17.25 13.3807 16.1307 14.5 14.75 14.5H13.25V16.5H14.75C17.2353 16.5 19.25 14.4853 19.25 12C19.25 9.51472 17.2353 7.5 14.75 7.5H13.25Z" fill="black"/>
</svg>
