<svg width="24" height="24" viewBox="0 0 24 24" fill="none" xmlns="http://www.w3.org/2000/svg">
<path d="M6.87347 10.7626C5.11611 12.5199 5.11611 15.3692 6.87347 17.1265C8.63083 18.8839 11.4801 18.8839 13.2374 17.1265L14.2981 16.0659L12.8839 14.6516L11.8232 15.7123C10.8469 16.6886 9.26399 16.6886 8.28768 15.7123C7.31137 14.736 7.31137 13.1531 8.28768 12.1768L9.34834 11.1161L7.93413 9.7019L6.87347 10.7626Z" fill="black"/>
<path d="M9.34834 13.2374L10.7626 14.6516L14.6516 10.7626L13.2374 9.34834L9.34834 13.2374Z" fill="black"/>
<path d="M9.7019 7.93413L11.1161 9.34834L12.1768 8.28768C13.1531 7.31137 14.736 7.31137 15.7123 8.28768C16.6886 9.26399 16.6886 10.8469 15.7123 11.8232L14.6516 12.8839L16.0659 14.2981L17.1265 13.2374C18.8839 11.4801 18.8839 8.63083 17.1265 6.87347C15.3692 5.11611 12.5199 5.11611 10.7626 6.87347L9.7019 7.93413Z" fill="black"/>
</svg>
