<svg width="24" height="24" viewBox="0 0 24 24" fill="none" xmlns="http://www.w3.org/2000/svg">
<path d="M12 12C12.8284 12 13.5 11.3284 13.5 10.5C13.5 9.67157 12.8284 9 12 9C11.1716 9 10.5 9.67157 10.5 10.5C10.5 11.3284 11.1716 12 12 12Z" fill="black"/>
<path fill-rule="evenodd" clip-rule="evenodd" d="M14.6468 15.8778C14.2245 16.3393 13.7693 16.8369 13.291 17.3949C12.8759 17.8791 12.4434 18.4088 12 19C11.5566 18.4088 11.1241 17.8791 10.709 17.3949C10.2307 16.8369 9.77549 16.3394 9.3532 15.8778C7.66251 14.0301 6.5 12.7595 6.5 10.5C6.5 7.18629 8.68629 5 12 5C15.3137 5 17.5 7.18629 17.5 10.5C17.5 12.7595 16.3375 14.03 14.6468 15.8778ZM15.5 10.5C15.5 11.5153 15.1734 12.2014 14.3329 13.219C14.0036 13.6177 13.6406 14.0146 13.2052 14.4904C13.03 14.6819 12.8429 14.8863 12.6418 15.1087C12.4356 15.3366 12.2212 15.5764 12 15.8301C11.7788 15.5764 11.5644 15.3366 11.3582 15.1087C11.1572 14.8864 10.9703 14.6822 10.7951 14.4908C10.3598 14.0149 9.99635 13.6177 9.66706 13.219C8.82661 12.2014 8.5 11.5153 8.5 10.5C8.5 9.29239 8.88962 8.45353 9.42157 7.92157C9.95353 7.38962 10.7924 7 12 7C13.2076 7 14.0465 7.38962 14.5784 7.92157C15.1104 8.45353 15.5 9.29239 15.5 10.5Z" fill="black"/>
</svg>
