<svg width="24" height="24" viewBox="0 0 24 24" fill="none" xmlns="http://www.w3.org/2000/svg">
<path fill-rule="evenodd" clip-rule="evenodd" d="M14.3329 13.219C15.1734 12.2014 15.5 11.5153 15.5 10.5C15.5 9.29239 15.1104 8.45353 14.5784 7.92157C14.0465 7.38962 13.2076 7 12 7C10.7924 7 9.95353 7.38962 9.42157 7.92157C8.88962 8.45353 8.5 9.29239 8.5 10.5C8.5 11.5153 8.82661 12.2014 9.66706 13.219C9.99636 13.6178 10.3594 14.0146 10.7948 14.4904C10.9701 14.6819 11.157 14.8863 11.3582 15.1087C11.5644 15.3366 11.7788 15.5764 12 15.8301C12.2212 15.5764 12.4356 15.3366 12.6418 15.1087C12.843 14.8863 13.0299 14.6819 13.2052 14.4904C13.6406 14.0146 14.0036 13.6178 14.3329 13.219ZM13.291 17.3949C13.7693 16.8368 14.2246 16.3393 14.6469 15.8777C16.3376 14.0299 17.5 12.7595 17.5 10.5C17.5 7.18629 15.3137 5 12 5C8.68629 5 6.5 7.18629 6.5 10.5C6.5 12.7595 7.66239 14.0299 9.35308 15.8777C9.7754 16.3393 10.2307 16.8368 10.709 17.3949C11.1241 17.8791 11.5566 18.4088 12 19C12.4434 18.4088 12.8759 17.8791 13.291 17.3949Z" fill="black"/>
</svg>
