<svg width="24" height="24" viewBox="0 0 24 24" fill="none" xmlns="http://www.w3.org/2000/svg">
<path fill-rule="evenodd" clip-rule="evenodd" d="M8.41501 12.7582L5.53473 15.6385L6.94894 17.0527L18.0011 6.00056L16.5869 4.58635L14.9183 6.25491C14.189 5.48223 13.1553 5 12.0089 5C9.79976 5 8.00889 6.79086 8.00889 9V11C8.00889 11.6308 8.15492 12.2275 8.41501 12.7582ZM10.0151 11.1581L13.5029 7.67031C13.1366 7.25903 12.603 7 12.0089 7C10.9043 7 10.0089 7.89543 10.0089 9V11C10.0089 11.0532 10.011 11.106 10.0151 11.1581Z" fill="black"/>
<path d="M9.34449 17.4823L10.938 15.8888C11.2775 15.9616 11.6299 16 11.9911 16C13.3764 16 14.63 15.4367 15.5355 14.5266L16.9497 15.9408C15.9084 16.9859 14.5389 17.7036 13.0089 17.9265V19H11.0089V17.9316C10.4282 17.85 9.87035 17.6973 9.34449 17.4823Z" fill="black"/>
<path d="M16.0089 10.8179L11.8307 14.9961C11.8898 14.9987 11.9492 15 12.0089 15C14.218 15 16.0089 13.2091 16.0089 11V10.8179Z" fill="black"/>
</svg>
