<svg width="24" height="24" viewBox="0 0 24 24" fill="none" xmlns="http://www.w3.org/2000/svg">
<path fill-rule="evenodd" clip-rule="evenodd" d="M12.0089 5C9.79974 5 8.00888 6.79086 8.00888 9V11C8.00888 13.2091 9.79974 15 12.0089 15C14.218 15 16.0089 13.2091 16.0089 11V9C16.0089 6.79086 14.218 5 12.0089 5ZM14.0089 11V9C14.0089 7.89543 13.1135 7 12.0089 7C10.9043 7 10.0089 7.89543 10.0089 9V11C10.0089 12.1046 10.9043 13 12.0089 13C13.1135 13 14.0089 12.1046 14.0089 11Z" fill="black"/>
<path d="M13.0089 17.9265V19H11.0089V17.9316C9.47323 17.7159 8.09745 17.002 7.05026 15.9586L8.46448 14.5444C9.36859 15.444 10.6149 16 11.9911 16C13.3763 16 14.63 15.4367 15.5355 14.5266L16.9497 15.9408C15.9084 16.9859 14.5389 17.7036 13.0089 17.9265Z" fill="black"/>
</svg>
