<svg width="24" height="24" viewBox="0 0 24 24" fill="none" xmlns="http://www.w3.org/2000/svg">
<path fill-rule="evenodd" clip-rule="evenodd" d="M18.75 5.05629L9.25 8.22296V13.1144C8.93722 13.0039 8.60064 12.9437 8.25 12.9437C6.59315 12.9437 5.25 14.2869 5.25 15.9437C5.25 17.6006 6.59315 18.9437 8.25 18.9437C9.90685 18.9437 11.25 17.6006 11.25 15.9437V9.66447L16.75 7.83114V11.6144C16.4372 11.5039 16.1006 11.4437 15.75 11.4437C14.0931 11.4437 12.75 12.7869 12.75 14.4437C12.75 16.1006 14.0931 17.4437 15.75 17.4437C17.4069 17.4437 18.75 16.1006 18.75 14.4437V5.05629ZM16.75 14.4437C16.75 13.8914 16.3023 13.4437 15.75 13.4437C15.1977 13.4437 14.75 13.8914 14.75 14.4437C14.75 14.996 15.1977 15.4437 15.75 15.4437C16.3023 15.4437 16.75 14.996 16.75 14.4437ZM9.25 15.9437C9.25 15.3914 8.80228 14.9437 8.25 14.9437C7.69772 14.9437 7.25 15.3914 7.25 15.9437C7.25 16.496 7.69772 16.9437 8.25 16.9437C8.80228 16.9437 9.25 16.496 9.25 15.9437Z" fill="black"/>
</svg>
