<svg width="24" height="24" viewBox="0 0 24 24" fill="none" xmlns="http://www.w3.org/2000/svg">
<path fill-rule="evenodd" clip-rule="evenodd" d="M12 4.5C15.3137 4.5 18 7.18629 18 10.5V13.5H19V15.5L5 15.5V13.5H6V10.5C6 7.18629 8.68629 4.5 12 4.5ZM16 10.5C16 8.29086 14.2091 6.5 12 6.5C9.79086 6.5 8 8.29086 8 10.5V13.5L16 13.5V10.5Z" fill="black"/>
<path d="M9 16.5C9 18.1569 10.3431 19.5 12 19.5C13.6569 19.5 15 18.1569 15 16.5H13C13 17.0523 12.5523 17.5 12 17.5C11.4477 17.5 11 17.0523 11 16.5H9Z" fill="black"/>
</svg>
