<svg width="24" height="24" viewBox="0 0 24 24" fill="none" xmlns="http://www.w3.org/2000/svg">
<path fill-rule="evenodd" clip-rule="evenodd" d="M6.08579 15.5L4.29289 17.2929L5.70711 18.7071L19.7071 4.70711L18.2929 3.29289L15.761 5.8248C14.7321 4.99606 13.424 4.5 12 4.5C8.68629 4.5 6 7.18629 6 10.5V13.5H5V15.5H6.08579ZM8.08579 13.5L14.3344 7.25143C13.6774 6.77854 12.8712 6.5 12 6.5C9.79086 6.5 8 8.29086 8 10.5V13.5H8.08579Z" fill="black"/>
<path d="M11.7411 15.5L19 15.5V13.5H18V10.5C18 10.107 17.9622 9.7229 17.8901 9.35101L16 11.2411V13.5H13.7411L11.7411 15.5Z" fill="black"/>
<path d="M9.34432 17.8968C9.84677 18.8501 10.8475 19.5 12 19.5C13.6569 19.5 15 18.1569 15 16.5H13C13 17.0523 12.5523 17.5 12 17.5C11.4477 17.5 11 17.0523 11 16.5H10.7411L9.34432 17.8968Z" fill="black"/>
</svg>
