<svg width="24" height="24" viewBox="0 0 24 24" fill="none" xmlns="http://www.w3.org/2000/svg">
<path d="M17.9497 15.2071C19.1213 14.0355 19.1213 12.136 17.9497 10.9645L13.7071 6.72182C11.7545 4.7692 8.58866 4.7692 6.63604 6.72182C4.68341 8.67444 4.68341 11.8403 6.63604 13.7929L11.5858 18.7426L13 17.3284L8.05025 12.3787C6.87868 11.2071 6.87868 9.30761 8.05025 8.13603C9.22182 6.96446 11.1213 6.96446 12.2929 8.13603L16.5355 12.3787C16.9261 12.7692 16.9261 13.4024 16.5355 13.7929C16.145 14.1834 15.5118 14.1834 15.1213 13.7929L10.8787 9.55025L9.46446 10.9645L13.7071 15.2071C14.8787 16.3787 16.7782 16.3787 17.9497 15.2071Z" fill="black"/>
</svg>
