<svg width="24" height="24" viewBox="0 0 24 24" fill="none" xmlns="http://www.w3.org/2000/svg">
<path fill-rule="evenodd" clip-rule="evenodd" d="M5 12C5 8.13401 8.13401 5 12 5C15.866 5 19 8.13401 19 12C19 15.866 15.866 19 12 19C8.13401 19 5 15.866 5 12ZM7 12C7 9.58104 8.71776 7.56329 11 7.10002V10.0858L7.32053 13.7653C7.11336 13.2163 7 12.6214 7 12ZM8.42183 15.4924C9.10811 16.1954 9.99985 16.697 11 16.9V12.9142L8.42183 15.4924ZM13 12.9142V16.9C14.0001 16.697 14.8919 16.1954 15.5782 15.4924L13 12.9142ZM16.6795 13.7653C16.8866 13.2163 17 12.6214 17 12C17 9.58104 15.2822 7.56329 13 7.10002V10.0858L16.6795 13.7653Z" fill="black"/>
</svg>
