<svg width="24" height="24" viewBox="0 0 24 24" fill="none" xmlns="http://www.w3.org/2000/svg">
<path fill-rule="evenodd" clip-rule="evenodd" d="M10.9773 11.6085C10.8437 11.7421 10.7006 11.8605 10.5501 11.9637C10.7662 12.2478 10.9968 12.5119 11.2425 12.7575C11.4881 13.0032 11.7522 13.2338 12.0363 13.4499C12.1395 13.2995 12.2579 13.1564 12.3915 13.0227C13.5631 11.8511 15.4626 11.8511 16.6342 13.0227C17.328 13.7166 17.6431 14.6714 17.5151 15.5735C17.5044 15.5716 17.5258 15.5754 17.5151 15.5735L17.1675 17.543C14.0447 16.9919 11.6151 15.9585 9.82827 14.1718C8.04149 12.385 7.00808 9.95529 6.457 6.83253L8.42657 6.48496C8.42467 6.47427 8.42846 6.49568 8.42657 6.48496C9.32863 6.35697 10.2835 6.67201 10.9773 7.36585C12.1489 8.53743 12.1489 10.4369 10.9773 11.6085ZM8.88549 8.48761C9.07008 9.12154 9.28276 9.70078 9.52495 10.2305C9.53791 10.2188 9.55063 10.2068 9.56311 10.1943C9.95363 9.80376 9.95363 9.17059 9.56311 8.78007C9.37535 8.59231 9.1315 8.49482 8.88549 8.48761ZM15.5124 15.1145C15.5052 14.8685 15.4077 14.6247 15.22 14.4369C14.8294 14.0464 14.1963 14.0464 13.8057 14.4369C13.7933 14.4494 13.7812 14.4621 13.7695 14.4751C14.2993 14.7173 14.8785 14.9299 15.5124 15.1145Z" fill="black"/>
</svg>
