<svg width="24" height="24" viewBox="0 0 24 24" fill="none" xmlns="http://www.w3.org/2000/svg">
<path d="M16.8062 7.19378C18.0754 8.46299 18.71 10.1265 18.71 11.79L16.71 11.79C16.71 10.6383 16.2707 9.48667 15.392 8.608C14.5133 7.72932 13.3617 7.28998 12.21 7.28998V5.28998C13.8735 5.28998 15.537 5.92458 16.8062 7.19378Z" fill="black"/>
<path d="M14.3314 9.66866C14.9171 10.2544 15.21 11.0222 15.21 11.79H12.21L12.21 8.78998C12.9778 8.78998 13.7456 9.08287 14.3314 9.66866Z" fill="black"/>
<path fill-rule="evenodd" clip-rule="evenodd" d="M9.8103 12.7755C9.67665 12.9091 9.53354 13.0275 9.38311 13.1307C9.59919 13.4148 9.82982 13.6789 10.0755 13.9245C10.3211 14.1702 10.5852 14.4008 10.8693 14.6169C10.9725 14.4665 11.0909 14.3233 11.2245 14.1897C12.3961 13.0181 14.2956 13.0181 15.4672 14.1897C16.161 14.8835 16.476 15.8384 16.348 16.7404L16.0005 18.71C12.8777 18.1589 10.448 17.1255 8.66125 15.3387C6.87447 13.552 5.84105 11.1223 5.28998 7.99952L7.25955 7.65195C8.1616 7.52396 9.11645 7.839 9.8103 8.53285C10.9819 9.70442 10.9819 11.6039 9.8103 12.7755ZM7.71847 9.6546C7.90305 10.2885 8.11573 10.8678 8.35792 11.3975C8.37088 11.3858 8.3836 11.3737 8.39608 11.3613C8.78661 10.9707 8.78661 10.3376 8.39608 9.94706C8.20832 9.7593 7.96447 9.66181 7.71847 9.6546ZM14.3454 16.2815C14.3382 16.0355 14.2407 15.7917 14.0529 15.6039C13.6624 15.2134 13.0292 15.2134 12.6387 15.6039C12.6262 15.6164 12.6142 15.6291 12.6025 15.6421C13.1322 15.8843 13.7115 16.0969 14.3454 16.2815Z" fill="black"/>
</svg>
