<svg width="24" height="24" viewBox="0 0 24 24" fill="none" xmlns="http://www.w3.org/2000/svg">
<path d="M13.9893 8.61427L12.4464 7.07138L13.8606 5.65717L15.4035 7.20006L16.9464 5.65717L18.3606 7.07138L16.8177 8.61427L18.3606 10.1572L16.9464 11.5714L15.4035 10.0285L13.8606 11.5714L12.4464 10.1572L13.9893 8.61427Z" fill="black"/>
<path fill-rule="evenodd" clip-rule="evenodd" d="M9.73252 12.7636C9.88294 12.6604 10.0261 12.542 10.1597 12.4084C11.3313 11.2368 11.3313 9.33729 10.1597 8.16572C9.46585 7.47187 8.51101 7.15683 7.60895 7.28483L5.63938 7.6324C6.19046 10.7552 7.22387 13.1848 9.01065 14.9716C10.7974 16.7584 13.2271 17.7918 16.3499 18.3429L16.6974 16.3733C16.8254 15.4713 16.5104 14.5164 15.8166 13.8226C14.645 12.651 12.7455 12.651 11.5739 13.8226C11.4403 13.9562 11.3219 14.0993 11.2187 14.2498C10.9346 14.0337 10.6705 13.803 10.4249 13.5574C10.1792 13.3118 9.94859 13.0477 9.73252 12.7636ZM8.70732 11.0304C8.46514 10.5006 8.25246 9.92141 8.06787 9.28747C8.31387 9.29468 8.55772 9.39217 8.74549 9.57993C9.13601 9.97046 9.13601 10.6036 8.74549 10.9941C8.73301 11.0066 8.72028 11.0187 8.70732 11.0304ZM14.4023 15.2368C14.5901 15.4245 14.6876 15.6684 14.6948 15.9144C14.0609 15.7298 13.4816 15.5171 12.9519 15.2749C12.9636 15.262 12.9756 15.2493 12.9881 15.2368C13.3787 14.8463 14.0118 14.8463 14.4023 15.2368Z" fill="black"/>
</svg>
