<svg width="24" height="24" viewBox="0 0 24 24" fill="none" xmlns="http://www.w3.org/2000/svg">
<path d="M11.736 7.66783L13.1502 6.25362L15.2715 8.37494L17.3928 6.25362L18.807 7.66783L15.2715 11.2034L11.736 7.66783Z" fill="black"/>
<path fill-rule="evenodd" clip-rule="evenodd" d="M9.2861 12.1671C9.43653 12.0639 9.57964 11.9455 9.71328 11.8119C10.8849 10.6403 10.8849 8.74079 9.71328 7.56922C9.01944 6.87537 8.06459 6.56033 7.16253 6.68833L5.19297 7.0359C5.74404 10.1587 6.77746 12.5883 8.56424 14.3751C10.351 16.1619 12.7807 17.1953 15.9035 17.7464L16.251 15.7768C16.379 14.8748 16.064 13.9199 15.3701 13.2261C14.1986 12.0545 12.2991 12.0545 11.1275 13.2261C10.9939 13.3597 10.8755 13.5028 10.7723 13.6533C10.4882 13.4372 10.2241 13.2065 9.97845 12.9609C9.73281 12.7153 9.50218 12.4512 9.2861 12.1671ZM8.26091 10.4339C8.01872 9.90414 7.80604 9.32491 7.62146 8.69097C7.86746 8.69818 8.11131 8.79567 8.29907 8.98343C8.6896 9.37396 8.6896 10.0071 8.29907 10.3976C8.28659 10.4101 8.27387 10.4222 8.26091 10.4339ZM13.9559 14.6403C14.1437 14.828 14.2412 15.0719 14.2484 15.3179C13.6145 15.1333 13.0352 14.9206 12.5055 14.6784C12.5172 14.6655 12.5292 14.6528 12.5417 14.6403C12.9322 14.2498 13.5654 14.2498 13.9559 14.6403Z" fill="black"/>
</svg>
