<svg width="24" height="24" viewBox="0 0 24 24" fill="none" xmlns="http://www.w3.org/2000/svg">
<path d="M11.736 8.76402L13.1502 10.1782L14.2715 9.0569V12.2284L16.2715 12.2284V9.05692L17.3928 10.1782L18.807 8.76402L15.2715 5.22849L11.736 8.76402Z" fill="black"/>
<path fill-rule="evenodd" clip-rule="evenodd" d="M9.2861 13.1922C9.43653 13.089 9.57965 12.9706 9.71329 12.837C10.8849 11.6654 10.8849 9.76591 9.71329 8.59434C9.01944 7.90049 8.0646 7.58545 7.16254 7.71345L5.19297 8.06102C5.74405 11.1838 6.77746 13.6135 8.56424 15.4002C10.351 17.187 12.7807 18.2204 15.9035 18.7715L16.251 16.8019C16.379 15.8999 16.064 14.945 15.3701 14.2512C14.1986 13.0796 12.2991 13.0796 11.1275 14.2512C10.9939 14.3848 10.8755 14.5279 10.7723 14.6784C10.4882 14.4623 10.2241 14.2317 9.97845 13.986C9.73282 13.7404 9.50218 13.4763 9.2861 13.1922ZM8.26091 11.459C8.01873 10.9293 7.80605 10.35 7.62146 9.71609C7.86746 9.7233 8.11131 9.82079 8.29907 10.0086C8.6896 10.3991 8.6896 11.0322 8.29907 11.4228C8.2866 11.4352 8.27387 11.4473 8.26091 11.459ZM13.9559 15.6654C14.1437 15.8532 14.2412 16.097 14.2484 16.343C13.6145 16.1584 13.0352 15.9458 12.5055 15.7036C12.5172 15.6906 12.5292 15.6779 12.5417 15.6654C12.9322 15.2749 13.5654 15.2749 13.9559 15.6654Z" fill="black"/>
</svg>
