<svg width="24" height="24" viewBox="0 0 24 24" fill="none" xmlns="http://www.w3.org/2000/svg">
<path fill-rule="evenodd" clip-rule="evenodd" d="M5.5 5.5V11.5H11.5V5.5H5.5ZM9.5 7.5H7.5V9.5H9.5V7.5Z" fill="black"/>
<path fill-rule="evenodd" clip-rule="evenodd" d="M5.5 12.5H11.5V18.5H5.5V12.5ZM7.5 14.5H9.5V16.5H7.5V14.5Z" fill="black"/>
<path d="M12.5 12.5H15.5V15.5H12.5V12.5Z" fill="black"/>
<path d="M15.5 15.5H18.5V18.5H15.5V15.5Z" fill="black"/>
<path d="M14.5 16.5H12.5V18.5H14.5V16.5Z" fill="black"/>
<path d="M16.5 12.5H18.5V14.5H16.5V12.5Z" fill="black"/>
<path fill-rule="evenodd" clip-rule="evenodd" d="M12.5 5.5H18.5V11.5H12.5V5.5ZM14.5 7.5H16.5V9.5H14.5V7.5Z" fill="black"/>
</svg>
