<svg width="24" height="24" viewBox="0 0 24 24" fill="none" xmlns="http://www.w3.org/2000/svg">
<path d="M5.49939 12C5.49939 10.2051 6.22692 8.58008 7.40319 7.40381L8.8174 8.81802C8.00307 9.63236 7.49939 10.7574 7.49939 12C7.49939 13.2426 8.00307 14.3676 8.81741 15.182L7.4032 16.5962C6.22693 15.4199 5.49939 13.7949 5.49939 12Z" fill="black"/>
<path d="M8.99939 12C8.99939 11.1716 9.33517 10.4216 9.87806 9.87868L11.9994 12L9.87807 14.1213C9.33518 13.5784 8.99939 12.8284 8.99939 12Z" fill="black"/>
<path d="M18.5006 12C18.5006 13.7949 17.7731 15.4199 16.5968 16.5962L15.1826 15.182C15.9969 14.3676 16.5006 13.2427 16.5006 12C16.5006 10.7574 15.9969 9.63237 15.1826 8.81803L16.5968 7.40381C17.7731 8.58008 18.5006 10.2051 18.5006 12Z" fill="black"/>
<path d="M15.0006 12C15.0006 12.8284 14.6648 13.5784 14.1219 14.1213L12.0006 12L14.1219 9.87869C14.6648 10.4216 15.0006 11.1716 15.0006 12Z" fill="black"/>
</svg>
