<svg width="24" height="24" viewBox="0 0 24 24" fill="none" xmlns="http://www.w3.org/2000/svg">
<path fill-rule="evenodd" clip-rule="evenodd" d="M11.0793 13C11.1898 12.6872 11.25 12.3506 11.25 12C11.25 10.3431 9.90685 9 8.25 9C6.59315 9 5.25 10.3431 5.25 12C5.25 13.6569 6.59315 15 8.25 15H15.75C17.4069 15 18.75 13.6569 18.75 12C18.75 10.3431 17.4069 9 15.75 9C14.0931 9 12.75 10.3431 12.75 12C12.75 12.3506 12.8102 12.6872 12.9207 13H11.0793ZM8.25 13C8.80228 13 9.25 12.5523 9.25 12C9.25 11.4477 8.80228 11 8.25 11C7.69772 11 7.25 11.4477 7.25 12C7.25 12.5523 7.69772 13 8.25 13ZM15.75 13C16.3023 13 16.75 12.5523 16.75 12C16.75 11.4477 16.3023 11 15.75 11C15.1977 11 14.75 11.4477 14.75 12C14.75 12.5523 15.1977 13 15.75 13Z" fill="black"/>
</svg>
