<svg width="24" height="24" viewBox="0 0 24 24" fill="none" xmlns="http://www.w3.org/2000/svg">
<path d="M17.9289 6.07107L15.9289 6.07106V7.46206C13.5718 5.41713 9.99968 5.51504 7.75892 7.7558C7.37908 8.13564 7.06081 8.55374 6.80412 8.99769L8.5366 9.99794C8.70773 9.70197 8.91991 9.42324 9.17313 9.17002C10.7015 7.64163 13.159 7.60865 14.7275 9.07107L12.9289 9.07107V11.0711H17.9289L17.9289 6.07107Z" fill="black"/>
<path d="M6.07104 17.929H8.07104L8.07104 16.538C10.4282 18.5829 14.0003 18.485 16.2411 16.2442C16.6209 15.8644 16.9392 15.4463 17.1959 15.0023L15.4634 14.0021C15.2923 14.298 15.0801 14.5768 14.8269 14.83C13.2985 16.3584 10.841 16.3914 9.27247 14.929L11.071 14.929L11.071 12.929H6.07105L6.07104 17.929Z" fill="black"/>
</svg>
