<svg width="24" height="24" viewBox="0 0 24 24" fill="none" xmlns="http://www.w3.org/2000/svg">
<path d="M6.07104 6.07106L8.07105 6.07105V7.46205C10.4282 5.41712 14.0003 5.51504 16.2411 7.75579C16.6209 8.13563 16.9392 8.55373 17.1959 8.99768L15.4634 9.99793C15.2923 9.70196 15.0801 9.42323 14.8269 9.17001C13.2985 7.64162 10.841 7.60864 9.27247 9.07106L11.071 9.07106V11.0711H6.07105L6.07104 6.07106Z" fill="black"/>
<path d="M17.9289 17.9289H15.9289V16.5379C13.5718 18.5829 9.99968 18.485 7.75892 16.2442C7.37908 15.8644 7.06082 15.4463 6.80413 15.0023L8.5366 14.0021C8.70773 14.298 8.91991 14.5768 9.17313 14.83C10.7015 16.3584 13.159 16.3914 14.7275 14.9289L12.9289 14.9289L12.9289 12.9289H17.9289L17.9289 17.9289Z" fill="black"/>
</svg>
