<svg width="24" height="24" viewBox="0 0 24 24" fill="none" xmlns="http://www.w3.org/2000/svg">
<path d="M10.75 9.0549C10.75 9.88333 10.0784 10.5549 9.25 10.5549C8.42158 10.5549 7.75 9.88333 7.75 9.0549C7.75 8.22647 8.42158 7.5549 9.25 7.5549C10.0784 7.5549 10.75 8.22647 10.75 9.0549Z" fill="black"/>
<path d="M17.7682 15.1647C14.8684 11.685 9.13158 11.685 6.23178 15.1647L7.76822 16.4451C9.86843 13.9248 14.1316 13.9248 16.2318 16.4451L17.7682 15.1647Z" fill="black"/>
<path d="M14.75 10.5549C15.5784 10.5549 16.25 9.88333 16.25 9.0549C16.25 8.22647 15.5784 7.5549 14.75 7.5549C13.9216 7.5549 13.25 8.22647 13.25 9.0549C13.25 9.88333 13.9216 10.5549 14.75 10.5549Z" fill="black"/>
</svg>
