<svg width="24" height="24" viewBox="0 0 24 24" fill="none" xmlns="http://www.w3.org/2000/svg">
<path fill-rule="evenodd" clip-rule="evenodd" d="M10.727 14.1119L12 12.9138L13.273 14.1119C13.0977 14.493 13 14.9171 13 15.3641C13 17.0209 14.3431 18.3641 16 18.3641C17.6569 18.3641 19 17.0209 19 15.3641C19 13.7072 17.6569 12.3641 16 12.3641C15.5207 12.3641 15.0677 12.4765 14.6658 12.6763L13.4591 11.5406L18.1854 7.09229L16.8146 5.63589L12 10.1673L7.18536 5.63589L5.81464 7.09229L10.5409 11.5406L9.33416 12.6763C8.9323 12.4765 8.47927 12.3641 8 12.3641C6.34315 12.3641 5 13.7072 5 15.3641C5 17.0209 6.34315 18.3641 8 18.3641C9.65685 18.3641 11 17.0209 11 15.3641C11 14.9171 10.9023 14.493 10.727 14.1119ZM9 15.3641C9 15.9164 8.55228 16.3641 8 16.3641C7.44772 16.3641 7 15.9164 7 15.3641C7 14.8118 7.44772 14.3641 8 14.3641C8.55228 14.3641 9 14.8118 9 15.3641ZM17 15.3641C17 15.9164 16.5523 16.3641 16 16.3641C15.4477 16.3641 15 15.9164 15 15.3641C15 14.8118 15.4477 14.3641 16 14.3641C16.5523 14.3641 17 14.8118 17 15.3641Z" fill="black"/>
</svg>
