<svg width="24" height="24" viewBox="0 0 24 24" fill="none" xmlns="http://www.w3.org/2000/svg">
<path d="M10 13.5C10.8284 13.5 11.5 12.8284 11.5 12C11.5 11.1716 10.8284 10.5 10 10.5C9.17157 10.5 8.5 11.1716 8.5 12C8.5 12.8284 9.17157 13.5 10 13.5Z" fill="black"/>
<path fill-rule="evenodd" clip-rule="evenodd" d="M5.5 12C5.5 9.51472 7.51472 7.5 10 7.5H14C16.4853 7.5 18.5 9.51472 18.5 12C18.5 14.4853 16.4853 16.5 14 16.5H10C7.51472 16.5 5.5 14.4853 5.5 12ZM10 9.5H14C15.3807 9.5 16.5 10.6193 16.5 12C16.5 13.3807 15.3807 14.5 14 14.5H10C8.61929 14.5 7.5 13.3807 7.5 12C7.5 10.6193 8.61929 9.5 10 9.5Z" fill="black"/>
</svg>
