<svg width="24" height="24" viewBox="0 0 24 24" fill="none" xmlns="http://www.w3.org/2000/svg">
<path d="M14 13.5C13.1716 13.5 12.5 12.8284 12.5 12C12.5 11.1716 13.1716 10.5 14 10.5C14.8284 10.5 15.5 11.1716 15.5 12C15.5 12.8284 14.8284 13.5 14 13.5Z" fill="black"/>
<path fill-rule="evenodd" clip-rule="evenodd" d="M18.5 12C18.5 9.51472 16.4853 7.5 14 7.5H10C7.51472 7.5 5.5 9.51472 5.5 12C5.5 14.4853 7.51472 16.5 10 16.5H14C16.4853 16.5 18.5 14.4853 18.5 12ZM14 9.5H10C8.61929 9.5 7.5 10.6193 7.5 12C7.5 13.3807 8.61929 14.5 10 14.5H14C15.3807 14.5 16.5 13.3807 16.5 12C16.5 10.6193 15.3807 9.5 14 9.5Z" fill="black"/>
</svg>
