<svg width="24" height="24" viewBox="0 0 24 24" fill="none" xmlns="http://www.w3.org/2000/svg">
<path d="M13.5 10C13.5 10.8284 12.8284 11.5 12 11.5C11.1716 11.5 10.5 10.8284 10.5 10C10.5 9.17157 11.1716 8.5 12 8.5C12.8284 8.5 13.5 9.17157 13.5 10Z" fill="black"/>
<path fill-rule="evenodd" clip-rule="evenodd" d="M12 5.5C9.51472 5.5 7.5 7.51472 7.5 10L7.5 14C7.5 16.4853 9.51472 18.5 12 18.5C14.4853 18.5 16.5 16.4853 16.5 14V10C16.5 7.51472 14.4853 5.5 12 5.5ZM9.5 10L9.5 14C9.5 15.3807 10.6193 16.5 12 16.5C13.3807 16.5 14.5 15.3807 14.5 14V10C14.5 8.61929 13.3807 7.5 12 7.5C10.6193 7.5 9.5 8.61929 9.5 10Z" fill="black"/>
</svg>
