<svg width="24" height="24" viewBox="0 0 24 24" fill="none" xmlns="http://www.w3.org/2000/svg">
<path d="M13.5 14C13.5 13.1716 12.8284 12.5 12 12.5C11.1716 12.5 10.5 13.1716 10.5 14C10.5 14.8284 11.1716 15.5 12 15.5C12.8284 15.5 13.5 14.8284 13.5 14Z" fill="black"/>
<path fill-rule="evenodd" clip-rule="evenodd" d="M12 18.5C9.51472 18.5 7.5 16.4853 7.5 14L7.5 10C7.5 7.51472 9.51472 5.5 12 5.5C14.4853 5.5 16.5 7.51472 16.5 10V14C16.5 16.4853 14.4853 18.5 12 18.5ZM9.5 14L9.5 10C9.5 8.61929 10.6193 7.5 12 7.5C13.3807 7.5 14.5 8.61929 14.5 10V14C14.5 15.3807 13.3807 16.5 12 16.5C10.6193 16.5 9.5 15.3807 9.5 14Z" fill="black"/>
</svg>
