<svg width="24" height="24" viewBox="0 0 24 24" fill="none" xmlns="http://www.w3.org/2000/svg">
<path d="M12 13.5C12.8284 13.5 13.5 12.8284 13.5 12C13.5 11.1716 12.8284 10.5 12 10.5C11.1716 10.5 10.5 11.1716 10.5 12C10.5 12.8284 11.1716 13.5 12 13.5Z" fill="black"/>
<path fill-rule="evenodd" clip-rule="evenodd" d="M13.3542 5.68097H10.6367L9.50382 7.62904L7.20465 7.66772L5.84593 10.0211L6.96653 11.9763L5.85044 13.9867L7.20917 16.3401L9.46273 16.3472L10.6458 18.319H13.3633L14.4962 16.371L16.7953 16.3323L18.1541 13.9789L17.0335 12.0237L18.1496 10.0133L16.7908 7.65988L14.5373 7.65277L13.3542 5.68097ZM10.6655 9.60978L11.7872 7.68097H12.2218L13.4027 9.64919L15.634 9.65624L15.8513 10.0326L14.7373 12.0394L15.8468 13.9753L15.6295 14.3516L13.3345 14.3902L12.2128 16.319H11.7782L10.5972 14.3508L8.36597 14.3438L8.14868 13.9674L9.26275 11.9606L8.15323 10.0247L8.37052 9.64839L10.6655 9.60978Z" fill="black"/>
</svg>
