<svg width="24" height="24" viewBox="0 0 24 24" fill="none" xmlns="http://www.w3.org/2000/svg">
<path fill-rule="evenodd" clip-rule="evenodd" d="M15.5 11C17.1569 11 18.5 9.65685 18.5 8C18.5 6.34315 17.1569 5 15.5 5C13.8431 5 12.5 6.34315 12.5 8C12.5 8.13709 12.5092 8.27203 12.527 8.40425L10.3574 9.64401C9.84657 9.2407 9.20139 9 8.5 9C6.84315 9 5.5 10.3431 5.5 12C5.5 13.6569 6.84315 15 8.5 15C9.20139 15 9.84657 14.7593 10.3574 14.356L12.527 15.5958C12.5092 15.728 12.5 15.8629 12.5 16C12.5 17.6569 13.8431 19 15.5 19C17.1569 19 18.5 17.6569 18.5 16C18.5 14.3431 17.1569 13 15.5 13C14.704 13 13.9804 13.31 13.4434 13.8159L11.4264 12.6633C11.4746 12.45 11.5 12.2279 11.5 12C11.5 11.7721 11.4746 11.55 11.4264 11.3367L13.4434 10.1841C13.9804 10.69 14.704 11 15.5 11ZM15.5 9C16.0523 9 16.5 8.55228 16.5 8C16.5 7.44772 16.0523 7 15.5 7C14.9477 7 14.5 7.44772 14.5 8C14.5 8.55228 14.9477 9 15.5 9ZM15.5 17C16.0523 17 16.5 16.5523 16.5 16C16.5 15.4477 16.0523 15 15.5 15C14.9477 15 14.5 15.4477 14.5 16C14.5 16.5523 14.9477 17 15.5 17ZM9.5 12C9.5 12.5523 9.05228 13 8.5 13C7.94772 13 7.5 12.5523 7.5 12C7.5 11.4477 7.94772 11 8.5 11C9.05228 11 9.5 11.4477 9.5 12Z" fill="black"/>
</svg>
