<svg width="24" height="24" viewBox="0 0 24 24" fill="none" xmlns="http://www.w3.org/2000/svg">
<path fill-rule="evenodd" clip-rule="evenodd" d="M7.51938 6L5 9.14922V10C5 11.6569 6.34315 13 8 13C8.76835 13 9.46924 12.7111 10 12.2361C10.5308 12.7111 11.2316 13 12 13C12.7684 13 13.4692 12.7111 14 12.2361C14.5308 12.7111 15.2316 13 16 13C17.6569 13 19 11.6569 19 10V9.14922L16.4806 6H7.51938ZM7 10C7 10.5523 7.44772 11 8 11C8.55228 11 9 10.5523 9 10H11C11 10.5523 11.4477 11 12 11C12.5523 11 13 10.5523 13 10H15C15 10.5523 15.4477 11 16 11C16.5523 11 17 10.5523 17 10V9.85078L15.5194 8H8.48062L7 9.85078V10Z" fill="black"/>
<path d="M8 14V16H16V14H18V18H6V14H8Z" fill="black"/>
</svg>
