<svg width="24" height="24" viewBox="0 0 24 24" fill="none" xmlns="http://www.w3.org/2000/svg">
<path d="M13.818 5.41421L15.2322 4L18.7678 7.53554L15.2322 11.0711L13.818 9.65686L15.0893 8.38557C12.9465 8.46082 11.2322 10.222 11.2322 12.0003C11.2325 14.1613 12.9465 15.5392 15.0893 15.6144L13.818 14.3431L15.2322 12.9289L18.7678 16.4645L15.2322 20L13.818 18.5858L14.8016 17.6022C12.8938 17.4669 11.2325 16.4397 10.2322 14.9351C9.15722 16.5517 7.31916 17.6172 5.23224 17.6172V15.6172C7.44138 15.6172 9.23224 14.2091 9.23224 12C9.23224 10.1737 7.44138 8.38281 5.23224 8.38281V6.38281C7.31916 6.38281 9.15723 7.44827 10.2322 9.0649C11.2325 7.56031 12.8938 6.53309 14.8016 6.3978L13.818 5.41421Z" fill="black"/>
</svg>
