<svg width="24" height="24" viewBox="0 0 24 24" fill="none" xmlns="http://www.w3.org/2000/svg">
<path d="M14.8156 6.34402L16.2298 4.92981C18.0392 6.73923 19.1584 9.23893 19.1584 12C19.1584 14.7611 18.0392 17.2608 16.2298 19.0702L14.8156 17.656C16.2631 16.2085 17.1584 14.2088 17.1584 12C17.1584 9.79121 16.2631 7.79152 14.8156 6.34402Z" fill="black"/>
<path d="M15.6596 12C15.6596 13.7949 14.9321 15.4199 13.7558 16.5962L12.3416 15.182C13.1559 14.3677 13.6596 13.2427 13.6596 12C13.6596 10.7574 13.1559 9.63237 12.3416 8.81803L13.7558 7.40382C14.9321 8.58009 15.6596 10.2051 15.6596 12Z" fill="black"/>
<path fill-rule="evenodd" clip-rule="evenodd" d="M10.8416 6.5H7.12084L6.12084 9.5H4.8416V14.5H6.12084L7.12084 17.5H10.8416V6.5ZM7.56236 12.5H6.8416V11.5H7.56236L8.56236 8.5H8.8416V15.5H8.56236L7.56236 12.5Z" fill="black"/>
</svg>
