<svg width="24" height="24" viewBox="0 0 24 24" fill="none" xmlns="http://www.w3.org/2000/svg">
<path fill-rule="evenodd" clip-rule="evenodd" d="M12 19C15.866 19 19 15.866 19 12C19 8.13401 15.866 5 12 5C8.13401 5 5 8.13401 5 12C5 15.866 8.13401 19 12 19ZM16.1716 14.7574C16.6951 13.967 17 13.0191 17 12C17 10.9809 16.6951 10.0331 16.1716 9.24263L14.7076 10.7066C14.8951 11.0982 15 11.5369 15 12C15 12.4631 14.895 12.9018 14.7076 13.2934L16.1716 14.7574ZM14.7574 16.1716L13.2934 14.7076C12.9018 14.895 12.4631 15 12 15C11.5369 15 11.0982 14.8951 10.7066 14.7076L9.24263 16.1716C10.0331 16.6951 10.9809 17 12 17C13.0191 17 13.967 16.6951 14.7574 16.1716ZM7.82841 14.7574C7.30488 13.967 7 13.0191 7 12C7 10.9809 7.30488 10.033 7.8284 9.24261L9.29237 10.7066C9.10495 11.0982 9 11.5369 9 12C9 12.4632 9.10496 12.9018 9.29238 13.2934L7.82841 14.7574ZM13.2934 9.29238C12.9018 9.10496 12.4632 9 12 9C11.5369 9 11.0982 9.10495 10.7066 9.29237L9.24261 7.8284C10.033 7.30488 10.9809 7 12 7C13.0191 7 13.967 7.30488 14.7574 7.82841L13.2934 9.29238ZM12 13C12.5523 13 13 12.5523 13 12C13 11.4477 12.5523 11 12 11C11.4477 11 11 11.4477 11 12C11 12.5523 11.4477 13 12 13Z" fill="black"/>
</svg>
