<svg width="24" height="24" viewBox="0 0 24 24" fill="none" xmlns="http://www.w3.org/2000/svg">
<path fill-rule="evenodd" clip-rule="evenodd" d="M17.4625 12.8002C17.5343 12.7045 17.6005 12.6044 17.6606 12.5002C17.9239 12.0441 18.0625 11.5268 18.0625 11.0002C18.0625 10.4736 17.9239 9.95623 17.6606 9.50017C17.3973 9.04411 17.0186 8.6654 16.5625 8.40209C16.1065 8.13879 15.5891 8.00017 15.0625 8.00017C14.5744 8.00017 14.0942 8.11929 13.6634 8.34642C12.9306 7.52059 11.8613 7.00017 10.6704 7.00017C8.46127 7.00017 6.67041 8.79103 6.67041 11.0002C6.67041 12.065 7.08647 13.0326 7.76488 13.7493C6.81218 14.2776 6.01841 15.0577 5.47339 15.9997L7.20573 16.9998C7.89739 15.8044 9.18998 15.0002 10.6704 15.0002C12.1508 15.0002 13.4434 15.8044 14.1351 16.9998L15.8674 15.9997C15.4547 15.2864 14.8994 14.666 14.2405 14.1774C14.4967 14.0618 14.7751 14.0013 15.0577 14.0006C15.4095 13.9997 15.7553 14.0917 16.0602 14.2673C16.3651 14.4428 16.6183 14.6957 16.7942 15.0004L18.5266 14.0002C18.2558 13.531 17.8933 13.1232 17.4625 12.8002ZM14.6704 11.0002C14.6704 11.3023 14.6369 11.5966 14.5734 11.8796C14.6936 11.9464 14.826 11.9878 14.9623 12.0014C14.9925 12.0007 15.0227 12.0003 15.0529 12.0002C15.0896 12.0001 15.1262 12.0005 15.1627 12.0014C15.3044 11.9872 15.4418 11.9432 15.5657 11.8716C15.7186 11.7833 15.8457 11.6563 15.934 11.5033C16.0223 11.3503 16.0688 11.1768 16.0688 11.0002C16.0688 10.8235 16.0223 10.65 15.934 10.497C15.8457 10.3441 15.7186 10.217 15.5657 10.1287C15.4127 10.0404 15.2392 9.99391 15.0625 9.99391C14.8913 9.99391 14.7229 10.0376 14.5734 10.1208C14.6369 10.4037 14.6704 10.698 14.6704 11.0002ZM10.6704 13.0002C11.775 13.0002 12.6704 12.1047 12.6704 11.0002C12.6704 9.8956 11.775 9.00017 10.6704 9.00017C9.56584 9.00017 8.67041 9.8956 8.67041 11.0002C8.67041 12.1047 9.56584 13.0002 10.6704 13.0002Z" fill="black"/>
</svg>
