<svg width="24" height="24" viewBox="0 0 24 24" fill="none" xmlns="http://www.w3.org/2000/svg">
<path d="M12 16.5C13.9561 16.5 15.6207 15.2519 16.2409 13.5086L18.4615 11.288C18.4869 11.5219 18.5 11.7594 18.5 12C18.5 15.5899 15.5899 18.5 12 18.5C8.41015 18.5 5.5 15.5899 5.5 12C5.5 8.41015 8.41015 5.5 12 5.5C13.0906 5.5 14.1184 5.76858 15.021 6.24321L13.506 7.75819C13.0352 7.59101 12.5282 7.5 12 7.5C9.51472 7.5 7.5 9.51472 7.5 12C7.5 14.4853 9.51472 16.5 12 16.5Z" fill="black"/>
<path d="M11.5014 15.5019L18.0891 8.91421L16.6749 7.5L11.5014 12.6734L9.91397 11.086L8.49976 12.5002L11.5014 15.5019Z" fill="black"/>
</svg>
