<svg width="24" height="24" viewBox="0 0 24 24" fill="none" xmlns="http://www.w3.org/2000/svg">
<path fill-rule="evenodd" clip-rule="evenodd" d="M15.9999 9.03502C17.1955 9.72662 18 11.0194 18 12.5C18 14.7091 16.2091 16.5 14 16.5C13.6547 16.5 13.3196 16.4562 13 16.374V19H11V16.374C10.6804 16.4562 10.3453 16.5 10 16.5C7.79086 16.5 6 14.7091 6 12.5C6 11.0194 6.80446 9.72662 8.00015 9.03502C8.00005 9.02336 8 9.01169 8 9C8 6.79086 9.79086 5 12 5C14.2091 5 16 6.79086 16 9C16 9.01169 16 9.02336 15.9999 9.03502ZM14 9C14 9.44248 13.855 9.89252 13.7661 10.3229L14.5178 10.5676C15.3713 10.7958 16 11.5745 16 12.5C16 13.6045 15.1046 14.5 14 14.5C13.4477 14.5 12.9477 14.2761 12.5858 13.9142L12 13.3222L11.4142 13.9142C11.0523 14.2761 10.5523 14.5 10 14.5C8.89543 14.5 8 13.6045 8 12.5C8 11.5745 8.62866 10.7958 9.48225 10.5676L10.2617 10.3229C10.1581 9.89293 10 9.4465 10 9C10 7.89543 10.8954 7 12 7C13.1046 7 14 7.89543 14 9Z" fill="black"/>
</svg>
