<svg width="24" height="24" viewBox="0 0 24 24" fill="none" xmlns="http://www.w3.org/2000/svg">
<path fill-rule="evenodd" clip-rule="evenodd" d="M17.6569 10C17.8837 10.6416 18 11.3179 18 12H13V15.5C13 16.8807 11.8807 18 10.5 18C9.11929 18 8 16.8807 8 15.5H10C10 15.7761 10.2239 16 10.5 16C10.7761 16 11 15.7761 11 15.5V12L6 12C6 11.3179 6.1163 10.6416 6.34315 10C6.37835 9.90043 6.41622 9.80169 6.45672 9.7039C6.75825 8.97595 7.20021 8.31451 7.75736 7.75736C8.31451 7.20021 8.97595 6.75825 9.7039 6.45672C10.4319 6.15519 11.2121 6 12 6C12.7879 6 13.5681 6.15519 14.2961 6.45672C15.0241 6.75825 15.6855 7.20021 16.2426 7.75736C16.7998 8.31451 17.2417 8.97595 17.5433 9.7039C17.5838 9.80169 17.6217 9.90043 17.6569 10ZM8.5359 10C8.71031 9.69792 8.92386 9.41928 9.17157 9.17157C9.54301 8.80014 9.98396 8.5055 10.4693 8.30448C10.9546 8.10346 11.4747 8 12 8C12.5253 8 13.0454 8.10346 13.5307 8.30448C14.016 8.5055 14.457 8.80014 14.8284 9.17157C15.0761 9.41928 15.2897 9.69792 15.4641 10L8.5359 10Z" fill="black"/>
</svg>
