<svg width="24" height="24" viewBox="0 0 24 24" fill="none" xmlns="http://www.w3.org/2000/svg">
<path fill-rule="evenodd" clip-rule="evenodd" d="M15.3344 14.2261C16.3567 13.3106 17 11.9806 17 10.5002C17 7.73882 14.7614 5.50024 12 5.50024C9.23858 5.50024 7 7.73882 7 10.5002C7 11.9806 7.6433 13.3106 8.6656 14.2261C7.15521 14.9196 5.89799 16.0697 5.07065 17.4996L6.80299 18.4998C7.84048 16.7066 9.77937 15.5002 12 15.5002C14.2207 15.5002 16.1595 16.7066 17.197 18.4997L18.9294 17.4996C18.102 16.0697 16.8448 14.9196 15.3344 14.2261ZM15 10.5002C15 12.1571 13.6569 13.5002 12 13.5002C10.3431 13.5002 9 12.1571 9 10.5002C9 8.84339 10.3431 7.50024 12 7.50024C13.6569 7.50024 15 8.84339 15 10.5002Z" fill="black"/>
</svg>
