<svg width="24" height="24" viewBox="0 0 24 24" fill="none" xmlns="http://www.w3.org/2000/svg">
<path d="M15.4381 10.1719L16.485 9.12506L17.5318 10.1719L18.946 8.75769L17.8992 7.71085L18.946 6.664L17.5318 5.24979L16.485 6.29663L15.4381 5.24979L14.0239 6.66401L15.0708 7.71084L14.0239 8.75768L15.4381 10.1719Z" fill="black"/>
<path fill-rule="evenodd" clip-rule="evenodd" d="M14.251 12.7505C14.251 13.8154 13.8349 14.783 13.1565 15.4997C14.1092 16.028 14.903 16.8081 15.448 17.75L13.7156 18.7502C13.024 17.5548 11.7314 16.7505 10.251 16.7505C8.77055 16.7505 7.47796 17.5548 6.78629 18.7502L5.05396 17.75C5.59898 16.8081 6.39275 16.028 7.34545 15.4997C6.66703 14.783 6.25098 13.8154 6.25098 12.7505C6.25098 10.5414 8.04184 8.75055 10.251 8.75055C12.4601 8.75055 14.251 10.5414 14.251 12.7505ZM10.251 14.7505C11.3555 14.7505 12.251 13.8551 12.251 12.7505C12.251 11.646 11.3555 10.7505 10.251 10.7505C9.14641 10.7505 8.25098 11.646 8.25098 12.7505C8.25098 13.8551 9.14641 14.7505 10.251 14.7505Z" fill="black"/>
</svg>
