<svg width="24" height="24" viewBox="0 0 24 24" fill="none" xmlns="http://www.w3.org/2000/svg">
<path d="M14.625 6.53034L13.2108 7.94455L15.4381 10.1719L18.946 6.664L17.5318 5.24979L15.4381 7.34347L14.625 6.53034Z" fill="black"/>
<path fill-rule="evenodd" clip-rule="evenodd" d="M13.1565 15.4997C13.8349 14.783 14.251 13.8154 14.251 12.7505C14.251 10.5414 12.4601 8.75055 10.251 8.75055C8.04184 8.75055 6.25098 10.5414 6.25098 12.7505C6.25098 13.8154 6.66703 14.783 7.34545 15.4997C6.39275 16.028 5.59898 16.8081 5.05396 17.75L6.78629 18.7502C7.47796 17.5548 8.77055 16.7505 10.251 16.7505C11.7314 16.7505 13.024 17.5548 13.7156 18.7502L15.448 17.75C14.903 16.8081 14.1092 16.028 13.1565 15.4997ZM12.251 12.7505C12.251 13.8551 11.3555 14.7505 10.251 14.7505C9.14641 14.7505 8.25098 13.8551 8.25098 12.7505C8.25098 11.646 9.14641 10.7505 10.251 10.7505C11.3555 10.7505 12.251 11.646 12.251 12.7505Z" fill="black"/>
</svg>
