<svg width="24" height="24" viewBox="0 0 24 24" fill="none" xmlns="http://www.w3.org/2000/svg">
<path d="M12 14C10.8954 14 10 13.1046 10 12C10 10.8954 10.8954 10 12 10C13.1046 10 14 10.8954 14 12C14 13.1046 13.1046 14 12 14Z" fill="black"/>
<path fill-rule="evenodd" clip-rule="evenodd" d="M18.5 12C17.5 14 15 16 12 16C9 16 6.5 14 5.5 12C6.5 10 9 8 12 8C15 8 17.5 10 18.5 12ZM12 14C13.6855 14 15.2001 13.0843 16.1139 12C15.2001 10.9157 13.6855 10 12 10C10.3145 10 8.79987 10.9157 7.88612 12C8.79987 13.0843 10.3145 14 12 14Z" fill="black"/>
</svg>
