<svg width="24" height="24" viewBox="0 0 24 24" fill="none" xmlns="http://www.w3.org/2000/svg">
<path fill-rule="evenodd" clip-rule="evenodd" d="M12 5C8.13401 5 5 8.13401 5 12C5 14.9117 6.77778 17.4082 9.30711 18.4633C10.1138 18.7998 10.9969 18.9896 11.9232 18.9996C11.9487 18.9999 11.9744 19 12 19C12.0256 19 12.0513 18.9999 12.0768 18.9996C13.0031 18.9896 13.8862 18.7998 14.6929 18.4633C17.2222 17.4082 19 14.9117 19 12C19 8.13401 15.866 5 12 5ZM12.9339 13C12.8022 13.9886 12.4779 14.9163 12 15.7442C11.5221 14.9163 11.1978 13.9886 11.0661 13H12.9339ZM14.948 13C14.8093 14.326 14.3978 15.5709 13.7706 16.6774C15.3558 16.0771 16.5561 14.694 16.9 13H14.948ZM16.9 11H14.948C14.8093 9.67397 14.3978 8.42911 13.7706 7.32256C15.3558 7.92292 16.5561 9.30596 16.9 11ZM12.9339 11H11.0661C11.1978 10.0114 11.5221 9.08371 12 8.25584C12.4779 9.08371 12.8022 10.0114 12.9339 11ZM9.05201 11C9.19073 9.67397 9.60223 8.42911 10.2294 7.32256C8.64423 7.92292 7.44389 9.30596 7.10002 11H9.05201ZM7.10002 13C7.44389 14.694 8.64422 16.0771 10.2294 16.6774C9.60222 15.5709 9.19072 14.326 9.052 13H7.10002Z" fill="black"/>
</svg>
