<svg width="24" height="24" viewBox="0 0 24 24" fill="none" xmlns="http://www.w3.org/2000/svg">
<path d="M4.92979 9.92919L6.34401 11.3434C7.7915 9.89591 9.7912 9.00061 12 9.00061C14.2088 9.00061 16.2085 9.8959 17.656 11.3434L19.0702 9.92918C17.2608 8.11976 14.7611 7.00061 12 7.00061C9.23891 7.00061 6.73922 8.11976 4.92979 9.92919Z" fill="black"/>
<path d="M16.5962 12.4032C15.4199 11.2269 13.7949 10.4994 12 10.4994C10.2051 10.4994 8.58007 11.2269 7.4038 12.4032L8.81802 13.8174C9.63236 13.0031 10.7574 12.4994 12 12.4994C13.2426 12.4994 14.3676 13.0031 15.182 13.8174L16.5962 12.4032Z" fill="black"/>
<path d="M14.1213 14.8781C13.5784 14.3352 12.8284 13.9994 12 13.9994C11.1716 13.9994 10.4216 14.3352 9.87868 14.8781L12 16.9994L14.1213 14.8781Z" fill="black"/>
</svg>
