<svg width="24" height="24" viewBox="0 0 24 24" fill="none" xmlns="http://www.w3.org/2000/svg">
<path d="M8.08612 13.0855L5.58582 15.5858L7.00003 17L17.511 6.48902L16.0968 5.07481L13.9758 7.1958C13.3371 7.06777 12.6764 7.00061 12 7.00061C9.23891 7.00061 6.73922 8.11976 4.92979 9.92919L6.34401 11.3434C7.7915 9.89591 9.7912 9.00061 12 9.00061C12.0566 9.00061 12.113 9.0012 12.1693 9.00237L10.4978 10.6738C9.30609 10.9558 8.24123 11.5658 7.4038 12.4032L8.08612 13.0855Z" fill="black"/>
<path d="M13.9064 12.922C14.3831 13.1452 14.8142 13.4496 15.182 13.8174L16.5962 12.4032C16.2316 12.0386 15.8239 11.7171 15.3813 11.447L13.9064 12.922Z" fill="black"/>
<path d="M10.9145 15.9139L12 16.9994L14.1213 14.8781C13.7452 14.502 13.2697 14.2253 12.7376 14.0907L10.9145 15.9139Z" fill="black"/>
<path d="M17.656 11.3434C17.2923 10.9797 16.8938 10.6509 16.4659 10.3624L17.9013 8.927C18.3164 9.23097 18.7072 9.56618 19.0702 9.92918L17.656 11.3434Z" fill="black"/>
</svg>
