<svg width="24" height="24" viewBox="0 0 24 24" fill="none" xmlns="http://www.w3.org/2000/svg">
<path d="M8.37868 11.8787H10.3787V13.8787H12.3787V11.8787H14.3787V9.87869H12.3787V7.87869H10.3787V9.87869H8.37868V11.8787Z" fill="black"/>
<path fill-rule="evenodd" clip-rule="evenodd" d="M11.3787 16.8787C12.4146 16.8787 13.3893 16.6161 14.2397 16.1539L17.2071 19.1213L18.6213 17.7071L15.8234 14.9092C16.7898 13.8441 17.3787 12.4302 17.3787 10.8787C17.3787 7.56498 14.6924 4.87869 11.3787 4.87869C8.06497 4.87869 5.37868 7.56498 5.37868 10.8787C5.37868 14.1924 8.06497 16.8787 11.3787 16.8787ZM11.3787 14.8787C13.5878 14.8787 15.3787 13.0878 15.3787 10.8787C15.3787 8.66955 13.5878 6.87869 11.3787 6.87869C9.16954 6.87869 7.37868 8.66955 7.37868 10.8787C7.37868 13.0878 9.16954 14.8787 11.3787 14.8787Z" fill="black"/>
</svg>
